<svg width="101" height="63" fill="none" xmlns="http://www.w3.org/2000/svg"><path fill-rule="evenodd" clip-rule="evenodd" d="M64.57 33.323a27.65 27.65 0 00-.397-.385c-.147-.14-.22-.24-.22-.299 0-.073.018-.207.055-.405.037-.199.069-.364.1-.496.028-.103.05-.224.065-.363a.963.963 0 00-.022-.363 1.365 1.365 0 01-.066-.21.306.306 0 010-.164 5.26 5.26 0 01.122-.408c.05-.153.076-.268.076-.34 0-.074-.04-.155-.12-.243-.081-.088-.086-.211-.012-.374-.162-.19-.253-.323-.275-.398-.023-.071-.033-.233-.033-.483v-.858c-.03 0-.04.008-.033.022.007.014-.025.023-.099.023-.088 0-.147-.023-.176-.067a.193.193 0 01-.033-.143.951.951 0 01.043-.177.53.53 0 00.034-.164c-.089 0-.154.022-.198.065l-.111-.11a.83.83 0 00-.22.078c-.03.021-.08.032-.153.032-.074 0-.121-.028-.144-.088-.023-.058-.069-.088-.143-.088-.029 0-.143.022-.34.066a24.59 24.59 0 01-.683.143l-.804.164c-.279.06-.514.105-.705.134a.445.445 0 01-.164.011.21.21 0 00-.122.01c-.074.03-.171.071-.296.121a1.846 1.846 0 01-.298.101 9.991 9.991 0 01-.627.13c-.241.045-.48.082-.715.11l-.616.078a6.367 6.367 0 01-.288.033.777.777 0 01-.275-.066c-.11-.044-.2-.096-.274-.155l-.275.188a.795.795 0 01-.452.144h-1.145l-.13-.111c-.133.03-.27.052-.41.065a2.18 2.18 0 00-.361.067 5.784 5.784 0 00-.474.166 12.08 12.08 0 01-.891.307 1.072 1.072 0 01-.221.055c-.029 0-.044-.008-.044-.02 0-.016.003-.028.011-.035.008-.007.011-.017.011-.033 0-.013-.022-.022-.066-.022-.074 0-.095.03-.066.09.03.058.008.086-.066.086-.073 0-.114-.01-.12-.033-.009-.022-.048-.033-.122-.033a3.4 3.4 0 00-.396.045c-.191.03-.345.08-.463.152a.484.484 0 00-.176.123c-.043.051-.08.077-.11.077a1.872 1.872 0 00-.087.208.36.36 0 00-.022.21l.088.318c.029.112.044.204.044.277 0 .058-.02.12-.055.186a.73.73 0 00-.077.186.322.322 0 000 .168c.014.05.021.091.021.12a4.01 4.01 0 00-.087.242c-.03.088-.06.168-.09.243a1.522 1.522 0 00-.053.33 1.588 1.588 0 01-.056.329 3.78 3.78 0 00-.175.506.6.6 0 00.088.55c-.015.016-.037.023-.067.023h-.021c-.03 0-.04.015-.034.045a.12.12 0 01-.01.086c.014.03.014.056 0 .078-.016.023-.023.07-.023.143l.155.066-.079.077a.325.325 0 00-.054.078c.044.22.078.44.099.658.022.221.048.427.077.619a5.796 5.796 0 01.088.989c.03.03.052.044.066.044.015 0 .023.037.023.11a.898.898 0 01-.044.254.926.926 0 00-.045.275c.103-.088.192-.095.264-.022a3.75 3.75 0 01-.252.67 6.38 6.38 0 00-.276.65 1.421 1.421 0 00-.044.496c.015.17-.007.328-.066.473 0-.044.008-.066.022-.066h.044a.31.31 0 01.067.098.244.244 0 00.065.1c.059.03.107.081.144.153.036.075.069.148.098.221a2.56 2.56 0 000 .464c.058 0 .14.072.243.22 0 .13.013.271.044.417a.94.94 0 010 .397.306.306 0 00.11.154c.044.028.065.125.065.286 0 .073-.025.17-.077.285a3.9 3.9 0 00-.12.308.558.558 0 00.01.33c.037.104.04.193.012.265-.06.205-.1.414-.122.627a1.695 1.695 0 01-.12.518 1.61 1.61 0 01-.09-.099c-.028-.037-.058-.056-.086-.056v.176c0 .075.006.114.02.122.016.007.03.025.045.055a.734.734 0 01-.143.22c-.067.075-.098.139-.098.197 0 .075.017.137.055.188a.513.513 0 01.077.166.69.69 0 010 .241.64.64 0 000 .243c.014.073.044.12.087.143.043.02.067.07.067.142a.343.343 0 01-.077.21.3.3 0 00-.077.187c.028 0 .044-.008.044-.022 0-.014.036-.021.11-.021.102 0 .147.049.131.153a.526.526 0 000 .22c.073-.029.133-.015.177.045.044.058.059.118.044.174a.495.495 0 01.252-.12 1.38 1.38 0 01.276-.033.37.37 0 01.199.055.34.34 0 00.175.055c.074 0 .154-.02.242-.055a.63.63 0 01.242-.055c.074 0 .28.022.617.066.337.044.645.096.924.154.059-.029.08-.063.066-.098-.014-.038.014-.056.088-.056s.155.003.242.012c.088.006.154.009.2.009.087.031.167.07.24.123a.359.359 0 00.199.076c.074 0 .113-.01.12-.032a.22.22 0 01.056-.078 2.13 2.13 0 01.33-.023h.375a.15.15 0 00.12-.009c.037-.023.07-.026.1-.013.058-.013.116-.028.175-.044a.787.787 0 01.11-.021c.09 0 .214.008.374.021.162.016.271.023.33.023a.49.49 0 01.254.088c.095.058.18.088.253.088.059 0 .103-.018.133-.054.028-.036.073-.056.131-.056a.43.43 0 01.21.056.431.431 0 00.209.054c.058 0 .068-.018.032-.054-.035-.036-.017-.056.057-.056.13 0 .263.022.395.066.132.044.182.154.155.33 0-.117.036-.198.11-.243.073.03.164.067.274.11a.77.77 0 00.276.068c.058 0 .109.017.153.053a.262.262 0 00.177.057.305.305 0 00.187-.057.317.317 0 01.187-.053c.073 0 .124-.012.154-.033.029-.022.08-.034.154-.034.073 0 .144.019.21.055a.418.418 0 00.209.056.192.192 0 00.164-.077c.036-.053.091-.078.166-.078h.495c.271 0 .546.014.825.044.059-.03.103-.026.133.012.028.036.078.055.152.055.045 0 .134-.004.265-.012l.42-.021.418-.022c.132-.009.219-.012.263-.012.072 0 .133-.035.176-.11a.388.388 0 00.066-.154c-.147-.028-.22-.092-.22-.188v-.185c0-.075.036-.17.111-.286.073-.119.102-.221.087-.31a.274.274 0 01.143-.13c.067-.03.136-.053.209-.068v-1.033c-.088-.03-.132-.081-.132-.155 0-.073.023-.154.066-.242.045-.09.091-.18.143-.275a.552.552 0 00.078-.254c0-.072-.038-.15-.11-.23a.666.666 0 01-.154-.277 1.12 1.12 0 01-.012-.418.757.757 0 00-.01-.35 4.711 4.711 0 00-.1-.189.43.43 0 01-.055-.207c0-.045.034-.113.1-.21a1.41 1.41 0 00.143-.252.294.294 0 00-.023-.244.373.373 0 01-.043-.243c.029-.073.06-.153.098-.24a.644.644 0 00.055-.244c0-.072-.037-.185-.11-.34-.074-.154-.11-.268-.11-.34 0-.06.034-.126.099-.2.066-.073.062-.168-.01-.286h-.045a1.264 1.264 0 01-.352-.307 3.277 3.277 0 00-.098-.474 1.668 1.668 0 01-.078-.363c0-.073.063-.176.187-.309a.867.867 0 00.231-.417.82.82 0 00.044-.254.32.32 0 01.045-.186.794.794 0 00.01-.342.907.907 0 01-.01-.32l.066-.066c.014-.014.021-.058.021-.132 0-.072-.022-.117-.066-.131-.044-.014-.066-.038-.066-.067-.03-.205-.07-.44-.122-.705a3.97 3.97 0 01-.076-.483c0-.074.015-.164.044-.275a.747.747 0 01.132-.276c.074-.087.154-.16.242-.22a.638.638 0 00.199-.198zm-14.242 9.113h-.088v-.154h.088v.154zm12.81-.088c0-.264-.04-.525-.12-.78a50.49 50.49 0 00-.232-.716c-.162.03-.286.054-.375.077a1.04 1.04 0 01-.241.032l-4.887-.11c-.074 0-.087.02-.043.055.043.037.036.055-.023.055a.358.358 0 01-.154-.032l-.11-.056a1.578 1.578 0 00-.375 0 2.68 2.68 0 01-.285.022c-.162 0-.227-.044-.2-.132l.156-.198a.936.936 0 00-.308.33.084.084 0 01-.023-.1.286.286 0 01.067-.098c-.148 0-.242-.015-.286-.043.044-.133.058-.309.044-.53a4.36 4.36 0 00-.067-.55c0 .147-.004.305-.01.474a7.22 7.22 0 00-.012.363.933.933 0 01-.021.131 2.053 2.053 0 00-.034.232c-.007.08-.007.158 0 .231.008.074.026.125.055.153.309 0 .628.005.957.012.33.008.533.012.606.012.073 0 .162.018.265.055a.773.773 0 00.241.055h1.805a.42.42 0 01.155.021.37.37 0 00.153.022.425.425 0 00.221-.066c.073-.043.125-.051.154-.022-.03.045-.052.066-.066.066h-.044a.894.894 0 00.187-.021.209.209 0 01.165.021c0 .03.003.04.011.034.007-.008-.026-.012-.099-.012-.073 0-.164.012-.275.033a1.39 1.39 0 01-.275.034h-2.158c-.338.015-.726.03-1.166.045a4.321 4.321 0 01-1.123-.089l-.088-7.837v.176c-.059 0-.096-.008-.11-.022-.014 0-.022-.007-.022-.021v-1.586c.044-.042.066-.057.066-.042v-.024c-.03-.336-.048-.711-.055-1.122-.007-.41-.01-.8-.01-1.167h-3.215a.14.14 0 00-.032.122c.007.05-.004.092-.034.12a.275.275 0 01-.13-.131.164.164 0 00-.156-.089c-.118 0-.239.076-.364.231-.123.155-.186.283-.186.386 0 .043.007.108.022.197.014.09.026.191.033.309l.022.363a1.6 1.6 0 01-.01.319c-.075-.045-.126-.046-.156-.01a.259.259 0 01-.087.076c.03.367.065.73.11 1.09.044.36.08.715.11 1.068v2.905c-.03.03-.044.055-.044.078 0 .02-.015.046-.044.076-.03 0-.048.026-.055.076a.364.364 0 01-.033.121c.03.412.066.86.11 1.344.044.484.073.881.088 1.19.014.351.025.73.033 1.133.007.404.019.737.033 1a.695.695 0 00-.066.243c.014 0 .025.004.033.012.007.006.019.01.033.01l.022.022a2.28 2.28 0 00-.033.495c.007.17.011.335.011.496 0 .043.007.098.022.165.014.065.044.12.088.165a.81.81 0 00-.022.198c0 .073-.015.14-.044.197a.19.19 0 01.099.034.32.32 0 00.164.033c.074 0 .097-.019.068-.055-.03-.037-.008-.055.065-.055.074 0 .102.018.089.055-.015.036.014.055.088.055.073 0 .142-.01.21-.033a.522.522 0 01.163-.034c.235-.03.499-.046.793-.053.293-.008.564-.005.815.01.028 0 .047.018.055.055.006.036.047.055.12.055.075 0 .1-.019.077-.055-.022-.037.005-.055.078-.055s.157-.007.253-.022c.095-.015.172-.022.231-.022.074 0 .114.019.12.055.008.037.048.054.122.054a.802.802 0 00.264-.054.807.807 0 01.265-.055c.131 0 .248.015.352.044a1.034 1.034 0 00.682-.033.964.964 0 01.286-.077h.22c.044 0 .106.018.187.055.08.037.169.073.264.11.095.036.183.073.265.11.08.037.135.056.165.056.028 0 .1-.01.209-.024.11-.014.231-.024.363-.031.132-.01.253-.02.364-.035a2.04 2.04 0 01.23-.02c.074 0 .154.017.242.055a.648.648 0 00.242.055 1.6 1.6 0 00.33-.055c.147-.038.28-.056.397-.056.41 0 .837.007 1.277.021.44.015.814.008 1.123-.02l.131.11c0-.031.011-.055.033-.078.021-.02.048-.017.077.01a.302.302 0 00-.021-.098c-.016-.037-.008-.07.021-.1.03.03.044.052.044.068v.042c.03-.115.055-.23.077-.34a1.56 1.56 0 01.078-.276l-.022.044-.023.022c-.03-.087-.007-.182.067-.284a.22.22 0 01.043.108.58.58 0 01.022-.351.83.83 0 00.067-.287zm-12.084-6.294h-.11v.218h.11v-.218zm.11 6.494h-.11v.373h.11v-.373zm.704-3.458l-.044.31h-.11l.067-.31h.087zm.043-8.696a.258.258 0 01-.043.123.142.142 0 01-.13.077.595.595 0 00.086-.122c.03-.05.058-.078.087-.078zm4.403-1.23v-.64a7.53 7.53 0 01-1.407 0c-.075.03-.17.053-.287.066a1.185 1.185 0 00-.287.067.43.43 0 01.21.054c.066.036.143.07.23.1-.365.03-.737.05-1.11.064-.375.016-.753.023-1.133.023l-.133.156c.03 0 .066.002.11.01s.066.041.066.1h3.191v6.405a.505.505 0 00-.11.285c0 .088.008.187.022.297.015.112.03.231.045.365.014.131 0 .293-.045.483a3.96 3.96 0 00-.043.153.355.355 0 000 .176c0-.043.007-.07.021-.086 0-.015.008-.022.022-.022.059.073.052.146-.022.219a8.02 8.02 0 01-.033 1.112c-.036.36.004.665.121.913a7.207 7.207 0 01-.021-.99c.014-.352.036-.608.065-.77.044.249.07.506.077.77.008.264-.003.485-.033.66l.067-.065c.014-.015.022.014.022.088 0 .03-.005.047-.012.054-.007.007-.01.02-.01.034v.021c-.015 0-.022-.006-.022-.02-.03 0-.045.029-.045.087v.131c.03 0 .052-.018.067-.053a.277.277 0 01.066-.1l.065.045v-4.999c0-.072-.007-.237-.02-.494a4.52 4.52 0 010-.65 23.484 23.484 0 00.086-.892 12.682 12.682 0 00.045-.672 46.306 46.306 0 01.078-1.243c.02-.3.043-.575.065-.825a9.74 9.74 0 00.032-.418zm-.88 1.474v-1.277c-.146.029-.293.04-.44.032a7.53 7.53 0 00-.352-.01c-.102 0-.174-.014-.21-.044-.036-.03-.099.008-.186.11l-.132-.11a.786.786 0 01-.154.077.366.366 0 00-.133.077c.147.03.29.052.43.066.139.014.267.03.386.045.1.013.204.022.306.022.103 0 .184.028.243.087a.21.21 0 01.055.177 2.07 2.07 0 00.022.582c.022.14.033.277.033.408 0-.058.021-.095.066-.11.044-.016.065-.059.065-.132zm-.484-1.805h-.065l-.067-.132.067-.023.065.155zm.683-.022l-.53.043v-.087l.53-.066v.11zm-.353 9.662h-.087v-.154h.087v.154zm.067-.395h-.112v-.154h.112v.154zm.572-10.214c-.015.015-.022.029-.022.044-.015.015-.022.052-.022.11-.03 0-.07-.017-.121-.055-.052-.038-.063-.055-.033-.055a.138.138 0 01.099-.044h.099zm-.112 12.877a.28.28 0 00.023.1c.015.037-.007.054-.066.054v-.032c0-.052.016-.091.043-.122zm.09-.99h-.11v.309h.11v-.31zm.44 1.363h-.088l-.066-.13.088-.044.066.174zm.285 2.576h-.13v.088h.13v-.088zm.44-2.705c-.029.029-.094.046-.197.053a.932.932 0 00-.264.055c.058-.058.066-.118.021-.175.03.028.055.043.079.043h.143c.072 0 .12.01.143.034.022.022.046.019.076-.01zm.023-13.209c-.03.03-.076.032-.143.01a1.415 1.415 0 01-.187-.076h.133a.27.27 0 01.099.022c.036.015.068.029.098.044zm4.38 13.648l-.968-.066v-.089l.969.044v.111zm3.97-9.532h-.067a.32.32 0 00-.065.153.587.587 0 000 .221 1.13 1.13 0 01-.066-.274 3.201 3.201 0 00-.066-.343c.03-.014.074.014.132.077.059.068.102.123.132.166zm.374 10.634a.23.23 0 00-.132.031.142.142 0 01-.088.033 4.092 4.092 0 01-.077-.672c-.007-.227-.011-.45-.011-.67l-.088-.09-.066.155-.132-.065a3.64 3.64 0 01.011-1.168c.065-.41.107-.85.121-1.32v-5.282c0 .03.011.05.033.066a.638.638 0 01.077.065c.044-.028.066-.08.066-.153.014.175.007.374-.022.593-.03.22.015.462.132.727.03-.22.036-.436.022-.65a2.715 2.715 0 01.022-.605c.03.03.063.085.1.165a.384.384 0 01.032.231v8.608zm-.352-1.586h-.088v-.155h.088v.155zm5.262.308c0-.044-.008-.133-.022-.263l-.055-.464-.067-.528a3.798 3.798 0 01-.032-.462 4.551 4.551 0 01-.012-.837 3.345 3.345 0 00-.011-.726 2.131 2.131 0 00-.077-.353.966.966 0 01-.055-.264v-1.52c0-.056.007-.087.021-.087h.045c0-.03-.01-.059-.033-.088a.506.506 0 01-.055-.087 2.58 2.58 0 00.043-.683 2.933 2.933 0 01.022-.639 1.452 1.452 0 01-.087-.109.323.323 0 01-.066-.197c0-.06.003-.133.011-.223a.59.59 0 01.055-.219c.028-.059.073-.078.132-.055.058.022.081.004.067-.054v-3.897h-1.828c-.074 0-.114.01-.121.034-.007.021-.026.04-.055.054a3.16 3.16 0 01-.517 0 6.82 6.82 0 00-.518-.022c-.118 0-.235.014-.352.045a1.22 1.22 0 01-.264.043h-.153a1.86 1.86 0 01-.232-.012c-.082-.006-.136-.024-.165-.054.03.03.043.06.043.087 0 .03-.036.045-.11.045h-.241a.634.634 0 01-.243-.045c0 .03-.007.063-.022.1-.014.038-.036.056-.066.056 0-.03-.003-.077-.01-.143a1.615 1.615 0 01-.012-.188 1.58 1.58 0 00-.044.385c0 .14-.014.254-.044.342a7.86 7.86 0 00-.099.474c-.037.197-.04.34-.012.428.09.03.119.073.09.132-.031.06-.06.147-.09.264a1.282 1.282 0 00-.043.286c.03 0 .04-.019.034-.054-.008-.037.025-.055.098-.055.073 0 .11.007.11.021 0 .015.015.037.043.066a.518.518 0 01-.097.077.203.203 0 01-.1.033c.132 0 .197.074.197.222 0 .145-.043.226-.131.241-.03-.058-.055-.111-.077-.155l-.055-.11c.03.06.055.125.077.198.022.074.063.14.121.2l-.088.086c-.073 0-.11-.028-.11-.087 0 .059.008.118.021.176a.684.684 0 01.023.177l.132-.112c.03.03.04.054.033.078a.552.552 0 00-.01.141v.167c0 .037-.03.077-.089.122a.15.15 0 01-.044-.111v-.11.176c0 .058.014.11.044.153-.03-.028-.033-.046-.011-.054a.214.214 0 00.077-.054.2.2 0 01.055.108.202.202 0 00.055.112.245.245 0 00.022-.177.63.63 0 01-.022-.132v-1.331c0-.479.059-.944.176-1.398.03-.148.014-.242-.043-.286a.514.514 0 01.505-.166c.207.037.367.04.485.01V30a.358.358 0 01-.242.056 1.332 1.332 0 00-.297.01.587.587 0 00-.242.088c-.066.044-.099.133-.099.265v5.304c0 .03.006.14.021.33.015.191.03.409.044.649l.045.75c.014.257.029.473.044.65.014.03.028.039.044.03.014-.005.021.028.021.1v1.454c0 .074-.019.113-.054.121a.104.104 0 00-.078.055l-.054.495a4.196 4.196 0 00-.033.407v.77a.445.445 0 00.131-.241c.015-.088.037-.169.067-.243l.021 1.784c0 .058.02.117.055.176.037.058.07.117.1.176a1.016 1.016 0 00.066.34.76.76 0 00.12.222c.052.066.13.097.231.097.074 0 .206-.007.397-.021a1.52 1.52 0 01.461.021c-.028.03-.035.06-.02.09.013.029.02.056.02.087h.683a10.758 10.758 0 00.726-.11c.163-.03.317-.056.464-.077a2.91 2.91 0 01.286-.034c.059 0 .099.02.121.055.022.037.069.056.143.056.073 0 .143-.043.21-.133a1.19 1.19 0 01.208-.22c.014-.337.026-.667.033-.99.007-.322.025-.652.055-.99a.23.23 0 01.078-.166.23.23 0 00.077-.164zm-5.042-6.406h-.087v.155h.087v-.155zm2.466-4.822c-.148-.029-.32-.06-.517-.097a2.623 2.623 0 00-.408-.057c-.073 0-.085.02-.032.057.05.037.039.054-.034.054-.074 0-.12-.007-.143-.022-.022-.014-.033-.007-.033.022.147.029.327.037.539.022.213-.014.422-.008.628.021zm1.717 9.6h-.088v.373h.088v-.374zm.308-10.985h-.22v-.09h.22v.09zm.396 8.607h-.088v-.155h.088v.155zm.77 1.826h-.087v-.264h.087v.264zm16.004 3.962v-1.233c0-.073-.019-.128-.056-.164-.037-.037-.055-.07-.055-.1.029-.469.037-.935.022-1.397a42.373 42.373 0 01-.022-1.354l.045-8.388c-.163.031-.32.05-.473.057a1.848 1.848 0 01-.452-.034c.161-.058.33-.094.506-.11a.427.427 0 00.374-.242 6.47 6.47 0 01-.638-.32 1.66 1.66 0 00-.815-.186c-.03 0-.165.01-.408.034-.241.021-.52.041-.835.065-.315.023-.646.043-.991.066-.345.022-.642.041-.891.055-.06-.146-.125-.22-.2-.22l-2.728 7.748c-.03-.03-.036-.078-.022-.144a.778.778 0 00.022-.142c0 .03-.014.044-.043.044l-.022.022c-.104-.073-.13-.188-.078-.34.051-.155.062-.27.033-.342l-1.783-3.478a104.188 104.188 0 01-1.606-3.258 9.23 9.23 0 00-.628.023c-.227.014-.44.025-.639.032-.197.007-.37.02-.517.034a4.484 4.484 0 01-.264.02c-.044 0-.11.005-.2.012a9.401 9.401 0 01-.295.022 4.712 4.712 0 00-.605.077c-.162-.014-.35-.026-.561-.033a5.385 5.385 0 00-.738.033c0 .162-.01.301-.023.419a.477.477 0 00.023.264c0 .161.015.323.043.484.03.162.045.316.045.462a.478.478 0 01-.056.22.442.442 0 00-.055.176c-.043.953-.073 1.703-.088 2.244a51.406 51.406 0 00-.01 2.4c.007.309.01.699.01 1.167l.376 5.304a.826.826 0 01-.023.166.819.819 0 01-.066.187c-.03-.014-.037.007-.022.066a.75.75 0 01.022.134c.249.059.502.09.76.098.255.007.508.039.758.098-.03.044-.051.066-.065.066h-.045c.059 0 .122.005.188.01.065.009.099.004.099-.01a.53.53 0 01.098-.109c.022-.016.037-.017.045-.011l.044.044c.022.021.07.032.142.032-.073.044-.11.08-.11.11.102 0 .22.008.353.023.132.015.25.022.353.022a7.25 7.25 0 01-.177-.385.886.886 0 01-.088-.32c0-.058.05-.084.154-.076.102.007.198.018.286.033a4.17 4.17 0 00-.01-.286 1.23 1.23 0 01.01-.287.211.211 0 01.078-.054.1.1 0 00.054-.055 1.58 1.58 0 01.088-.332.504.504 0 00.02-.329l.09-.046v-.68a.28.28 0 00-.066-.188.143.143 0 01-.023-.166l.068.068v.043c-.045-.117-.02-.26.077-.429a5.44 5.44 0 00.23-.452h.045v.132c-.06.162-.155.331-.286.507l.155.131c.071-.307.15-.63.23-.967.08-.338.15-.66.209-.968a.338.338 0 00-.033.175c.006.044-.004.082-.034.11l-.241-.242a.09.09 0 00.023-.065v-.023c.028.117.003.176-.078.176-.082 0-.15.05-.21.154-.03-.028-.04-.054-.032-.076.007-.023-.005-.034-.034-.034v-.616c0-.19-.007-.36-.021-.506a1.045 1.045 0 00-.089-.387.466.466 0 01-.065-.23c0-.072.007-.105.021-.1.015.009.037-.001.065-.032a.2.2 0 01.056.111.566.566 0 01.011.11 1.9 1.9 0 00.022-.495 2.79 2.79 0 00-.066-.43v-.308c0-.088.014-.177.044-.264.03.087.067.183.111.286a.46.46 0 01.044.264l.088-.398c.029-.131.05-.254.066-.373.073.162.157.346.252.551.097.206.184.404.265.594l.209.497c.058.14.088.23.088.274 0 .028-.003.043-.011.043-.007 0-.01.008-.01.023v.023-.023l-.166-.331a1.531 1.531 0 01-.121-.33 1.345 1.345 0 00-.133.243c-.03.073-.058.14-.088.197a14.468 14.468 0 01-.197-.473 2.38 2.38 0 00-.199-.407 19.47 19.47 0 00.033 1.244c.008.11.02.184.034.22a.24.24 0 01.022.077 1.864 1.864 0 00.197-.33c.03.029.045.059.045.087v.089l.043-.089a.11.11 0 00-.032-.077c-.023-.02-.025-.047-.011-.076.03-.03.04-.051.032-.067-.007-.015.019-.022.078-.022l.726 1.793a124.464 124.464 0 011.232 3.161c.177.47.353.917.53 1.342.043.014.095.033.154.056a.514.514 0 00.176.031h.263c.133 0 .286-.004.463-.01.176-.008.359-.011.55-.011h.484c-.03 0-.043-.007-.043-.022v-.044c.058-.09.153-.132.285-.132.074 0 .114.007.121.021a.334.334 0 00.055.066c-.028.03-.073.045-.132.045h-.177c.06 0 .148.007.266.021.116.015.38.038.792.066.089-.16.162-.326.22-.495.058-.168.118-.333.177-.496-.03 0-.06.02-.089.057-.03.037-.06.068-.087.098-.03-.25.02-.432.154-.55v.287c.058-.118.117-.246.175-.386a.91.91 0 00.088-.319c-.043 0-.066-.03-.066-.088.03-.03.04-.05.033-.067-.006-.014.025-.023.1-.023.03 0 .07-.043.12-.13.051-.087.103-.2.154-.331.052-.131.103-.266.155-.407a3.42 3.42 0 01.142-.342h.133c.045.03.066.083.066.155.117-.28.217-.56.297-.847.08-.286.15-.554.21-.803-.06.117-.108.257-.143.417-.038.163-.115.264-.232.308-.044-.087-.023-.176.067-.263-.03 0-.074.029-.133.087-.03-.014-.044-.043-.044-.087v-.045c-.014-.087-.01-.146.012-.175.022-.029.032-.052.032-.068.073.045.11.11.11.199 0-.058.044-.088.132-.088 0-.028-.014-.043-.044-.043-.029 0-.059.015-.088.043a.533.533 0 01-.067-.076c-.014-.023-.021-.07-.021-.143a.38.38 0 01.077-.22c.052-.074.091-.146.12-.221.03.03.045.051.045.066v.044-.286a.804.804 0 01-.22.33c-.03-.029-.044-.052-.044-.066a.059.059 0 01-.022-.044c0 .03.007.064.022.1a.12.12 0 010 .099 21.67 21.67 0 00-.43 1.089c-.153.418-.289.818-.407 1.2a1.512 1.512 0 00-.176.418 2.47 2.47 0 01-.176.463.588.588 0 00.087-.112c.03-.043.06-.064.09-.064l.043.042v.112c0 .073-.007.112-.022.12a.246.246 0 00-.065.056.196.196 0 00-.088-.056.203.203 0 01-.089-.055c-.116.22-.219.441-.308.66-.088.22-.169.418-.241.595h-2.818c0-.089.02-.117.066-.089a.4.4 0 01-.178-.097 1.737 1.737 0 01-.11-.167c0-.162-.043-.392-.131-.692-.088-.303-.19-.512-.308-.629a.54.54 0 00.055-.165c.007-.052-.018-.076-.077-.076-.03 0-.052.022-.066.067-.015.041-.022.051-.022.02 0-.073.007-.132.022-.176.014-.044.014-.08 0-.108-.161-.383-.32-.761-.473-1.135-.154-.375-.312-.73-.474-1.068a.553.553 0 00-.034-.275 6.39 6.39 0 00-.12-.33c-.044-.11-.088-.216-.132-.32a.658.658 0 01-.066-.218c0-.06.009-.089.023-.089h.02l2.18 5.349h2.554l3.5-9.642v5.393h.066a.428.428 0 00.01.222.482.482 0 01.035.174l-.045.023v2.75c0-.132.015-.212.044-.24h.044c-.03.19-.026.382.011.572.037.19.055.367.055.528.072 0 .169.01.286.032.117.023.212.048.286.077.015-.072.073-.109.176-.109h.628c.124 0 .223.014.297.043a4.14 4.14 0 01.484-.043h.242c0-.03.008-.059.022-.089.03-.059.059-.089.089-.089zm-15.541-9.62h-.11v.156h.11v-.156zm3.06.332c-.045-.016-.085-.078-.122-.188a1.736 1.736 0 01-.077-.363 3.735 3.735 0 01-.021-.397c0-.131.007-.22.021-.264.029.118.07.243.122.376a.94.94 0 01.077.306v.53zm.11 1.54v-.859c0-.073-.045-.178-.132-.317a1.265 1.265 0 01-.177-.43c.044.117.066.253.066.406 0 .154.004.306.011.452.008.147.025.286.055.417a.65.65 0 00.176.33zm.043 5.305a.288.288 0 01-.065.187.812.812 0 00-.11.165.24.24 0 01-.045-.066.629.629 0 01-.032-.198 6.426 6.426 0 01-.012-.43v-.758c0-.029.018-.07.055-.12a.842.842 0 01.1-.121v.285c.014 0 .029-.008.044-.023.029-.03.051-.045.065-.045v1.124zm-.11 1.145c-.117.119-.165.247-.142.385.022.14.025.261.01.364l.044-.397a1.23 1.23 0 01.089-.352zm.087-6.34h-.11v.2h.11v-.2zm0 3.368h-.11v.13h.11v-.13zm.046.374h-.088v.199h.088v-.199zm0 1.98h-.088v.266h.088v-.265zm.11-.99h-.088v.2h.087v-.2zm.022-.878c-.03 0-.048.029-.055.087a.929.929 0 00-.011.13.356.356 0 00.076-.13c.022-.058.02-.087-.01-.087zm.286.438c-.015.031-.018.053-.011.067a.159.159 0 01.01.066v.089c-.03-.03-.069-.037-.12-.022a.267.267 0 00-.121.065c0-.073.007-.157.022-.253a.407.407 0 01.11-.233c0 .06-.011.116-.034.165a.192.192 0 00.011.167l.133-.11zm-.021-.506h-.112v-.154h.112v.154zm.57-2.751c0-.03-.025-.114-.076-.253-.05-.14-.11-.297-.177-.474l-.209-.561a8.943 8.943 0 01-.175-.517v.572c0 .131.025.275.077.43.052.153.11.3.175.44.067.14.125.272.178.397.05.123.075.223.075.297.03-.06.06-.11.09-.155a.32.32 0 00.042-.176zm-.527 3.036h-.089v.156h.089v-.156zm.09-1.099c.027 0 .027.037 0 .11a.286.286 0 01-.133.153.334.334 0 010-.174.26.26 0 01.065-.133l.067.044zm-.025.77h-.109v.155h.11v-.155zm.11-1.101l-.065.22-.088-.021.067-.199h.086zm.706-.11h-.088v.155h.088v-.154zm5.26 5.217a.826.826 0 01-.099.155.382.382 0 00-.077.153c.014.03.003.073-.033.134l-.098.153a.724.724 0 00-.243.11h.33c.029-.103.065-.216.11-.342.044-.123.081-.245.11-.363zm-.087-10.5h-.089v.2h.089v-.2zm.55 9.202h-.067l-.065.175.065.045.066-.22zm.066-.177h-.111v.154h.11v-.154zm.22-11.27h-.089l-.066.177.09.043.065-.22zm.044 10.5h-.088v.154h.088v-.154zm.065-.154h-.11v.132h.11v-.131zm.11-.22l-.065.22-.089-.044.067-.176h.088zm.11-.066h-.11v.198h.11v-.198zm.2-.175c.014 0 .014.024 0 .076a.449.449 0 00-.023.121.15.15 0 00-.067-.132.959.959 0 00-.065.077.076.076 0 01-.067.033c0-.03.013-.066.033-.11a.249.249 0 00.034-.11.2.2 0 01.088.022.178.178 0 00.067.023zm.087-.046v-.22c-.03 0-.058.015-.087.046a.226.226 0 00-.067.043c.102 0 .154.043.154.131zm.154-.22h-.11v.199h.11v-.199zm.154-.857l-.066-.023-.132.243.088.043.11-.263zm5.152-2.994l-.221 7.947h-4.25v-6.077h-.065a2.808 2.808 0 01-.22.44c.03-.088.051-.172.066-.252a.724.724 0 00-.022-.297c-.029.029-.044.08-.044.154a.31.31 0 01.022-.133c.014-.03.007-.072-.022-.132a.29.29 0 00-.11.188l-.044.23c0 .016-.008.022-.022.022a.047.047 0 00-.033.012c-.008.007-.026.012-.054.012a.527.527 0 00-.034.186c-.008.097-.062.173-.165.231v-.374c.176-.19.297-.44.363-.748s.158-.587.276-.837c.072-.161.142-.334.209-.517a5.34 5.34 0 00.164-.54v-.13.044c0 .027.023.05.066.064.03-.03.04-.062.034-.098a.567.567 0 01-.012-.099.249.249 0 00.056-.078c.007-.022-.004-.061-.033-.12v.02c0 .015.022.03.067.044.043-.043.043-.116 0-.218.013.322.013.645 0 .968-.03.352-.071.748-.122 1.189-.051.44-.049.835.01 1.189h-.043c-.03 0-.044.036-.044.109 0 .06.011.165.033.319.021.154.033.306.033.452v.384c0 .14-.005.276-.012.408-.007.132-.01.253-.01.364v3.31h3.28c.074 0 .099-.017.078-.053-.023-.037.003-.056.076-.056l.087.067V31.761c0 .042.022.116.067.22a.384.384 0 00.044-.166v-.167l.107.255c.04.096.06.186.06.275.016.765.02 1.3.013 1.607-.007.31.003.5.037.572l.047 1.806c.03-.088.062-.183.099-.286a.802.802 0 00.054-.265.67.67 0 01.045.254c0 .096.03.194.089.297zm-4.646 1.627h-.11v-.198h.11v.198zm.242-.901a.947.947 0 00-.209.34.587.587 0 00-.033.364c.06-.116.107-.233.143-.35.037-.12.07-.237.1-.354zm.089-.22l-.089.154-.066-.022.066-.154.089.022zm.109-.462c-.03.073-.057.151-.088.23a.359.359 0 00-.021.21.346.346 0 00.1-.22c.006-.088.009-.162.009-.22zm.486.902l-.067-.023-.088.156.088.022.067-.155zm0 .22h-.088v.132h.088v-.133zm.109 1.673l-.11-.264-.088.044.132.22h.066zm0-5.723l-.066-.2-.066.024.044.176h.088zm.111 9.97l-.045.09-.175-.067v-.087l.22.065zm.637-12.941h-.484v.086h.484v-.086zm.22 13.031h-.263v-.088h.264v.088zm.11-12.987h-.308v.108h.309v-.108zm.33 12.987h-.374v-.11h.375v.11zm.595-.067H86.7v-.087h.132v.087zm.484-1.386h-.11v.153h.11v-.153zm.31-6.032l-.243 4.644c.029-.248.04-.542.032-.88a41.375 41.375 0 00-.032-.946l.065-.066c0-.074-.03-.08-.087-.022a.894.894 0 01-.022-.352 1.038 1.038 0 00-.023-.376c0 .089.015.149.045.177-.015 0-.03-.013-.045-.043-.014-.015-.022-.066-.022-.155.045.03.078.044.1.044.021 0 .035-.017.043-.054.008-.037-.011-.114-.054-.232h-.044c-.015 0-.023.015-.023.045.03-.265.056-.51.078-.739a24.7 24.7 0 00.054-.66 19.02 19.02 0 00.044-1.397c.029.162.05.33.068.507.013.176.035.344.065.505zm.571.639h-.11v.704h.11v-.704zm-37.692 22.53a.468.468 0 00-.065-.226.376.376 0 00-.15-.16c0-.057.008-.106.022-.149.014-.043.014-.078 0-.108a.354.354 0 01-.074-.182.477.477 0 01.01-.18c.014-.015.022-.026.022-.035 0-.005.006-.015.02-.03 0-.014.008-.028.022-.043a5.289 5.289 0 00-.17-.866c-.086-.307-.129-.494-.129-.567 0-.057.06-.167.181-.332a4.9 4.9 0 00.31-.46c-.142 0-.284-.073-.427-.224a.686.686 0 01-.214-.481c0-.07.017-.235.054-.492a4.9 4.9 0 00.053-.641.198.198 0 01.076-.054.244.244 0 00.074-.053c-.129-.158-.18-.3-.15-.428a.703.703 0 00-.022-.385 5.23 5.23 0 01-.085-.236.86.86 0 00-.085-.192 1.028 1.028 0 00-.193-.363c-.1-.129-.15-.25-.15-.364 0-.071.014-.164.044-.278a1.21 1.21 0 00.042-.277c-.014-.043.032-.116.139-.214.106-.1.19-.165.246-.194v-.939l-.096-.237a25.821 25.821 0 01-.097-.234.431.431 0 010-.268.618.618 0 00.022-.268c-.043-.027-.096-.064-.16-.105-.065-.045-.096-.094-.096-.151 0-.072.012-.228.042-.47.028-.243.058-.465.086-.663 0-.057.024-.119.075-.183a.298.298 0 00.074-.18.514.514 0 00-.108-.27 1.24 1.24 0 01-.148-.287.7.7 0 01-.011-.323.296.296 0 00-.054-.255c.029-.029.044-.053.044-.074 0-.023.006-.047.02-.076a1.426 1.426 0 01-.02-.245v-.203a.722.722 0 00-.171-.023c-.059 0-.101-.029-.13-.085a.23.23 0 01-.02-.107.254.254 0 00-.021-.106.203.203 0 00-.076-.075.192.192 0 01-.075-.074c.014-.03.011-.051-.01-.066-.022-.013-.033-.057-.033-.127 0-.072.022-.143.065-.215.042-.07.078-.136.107-.193a1.297 1.297 0 00-.374-.031 5.54 5.54 0 01-.29.01c-.07 0-.106-.017-.106-.053 0-.037-.036-.054-.107-.054-.072 0-.171.017-.3.054-.128.036-.249.068-.363.097a5.176 5.176 0 01-.866.106 5.685 5.685 0 01-.888-.02.52.52 0 01-.075.064.31.31 0 01-.14.02 1.08 1.08 0 01-.288-.053 1.105 1.105 0 00-.266-.054.592.592 0 00-.172.054c-.086.036-.171.072-.256.105-.087.038-.171.074-.258.11a.625.625 0 01-.17.053c-.072 0-.103-.029-.097-.087a.427.427 0 00-.01-.17c.014.199-.008.32-.064.364a.434.434 0 01-.257.064c-.072 0-.115-.012-.128-.034-.016-.02-.05-.03-.108-.03a.793.793 0 00-.203.042 4.96 4.96 0 01-.298.085 3.32 3.32 0 00-.333.108 1.7 1.7 0 01-.298.085 2.364 2.364 0 01-.418.053c-.15.007-.26.01-.331.01a41.374 41.374 0 01-.642-.031c-.142-.008-.278-.014-.406-.02a5.029 5.029 0 00-.235-.012c-.072 0-.14.036-.204.106-.064.073-.132.107-.203.107a.778.778 0 00-.224.033.86.86 0 01-.225.033c-.072 0-.11-.02-.118-.057-.008-.032-.046-.052-.117-.052a.376.376 0 00-.215.076.35.35 0 01-.191.076c-.073 0-.096-.019-.075-.055.02-.035-.004-.054-.076-.054s-.114.03-.128.087c-.014.057-.056.084-.128.084-.072 0-.093-.01-.064-.03.029-.023.007-.032-.065-.032-.07 0-.116.028-.139.084-.02.058-.06.085-.117.085-.071 0-.196-.01-.374-.03a3.694 3.694 0 00-.353-.033c-.072 0-.19.021-.354.063-.163.043-.288.05-.373.024-.03.013-.036.03-.022.053.015.02-.014.032-.085.032-.072 0-.11-.02-.118-.054-.007-.036-.025-.055-.053-.055.028.172-.044.242-.215.214v.194a.305.305 0 01-.042.17l-.235-.042v.193c.114.07.163.145.15.224a1.732 1.732 0 01-.13.352c.03.128.037.273.023.428a.667.667 0 01-.15.385c.029 0 .038-.006.032-.022-.008-.013.025-.02.096-.02.071 0 .117.052.14.16.02.106.031.19.031.246a.706.706 0 01-.021.171.336.336 0 000 .171.607.607 0 00.085-.109.765.765 0 01.086-.105c.042.172.085.317.128.438a.494.494 0 01-.043.396c.057.056.1.11.13.16l.063.117a.627.627 0 01.032.268.947.947 0 01-.053.27c.027.026.079.12.149.275.07.158.107.278.107.365a.741.741 0 01-.021.235l-.065.064-.064.064c.029.157.025.314-.01.47a1.27 1.27 0 00-.032.429.856.856 0 01-.14.148c-.05.043-.096.065-.14.065 0 .029.015.057.044.084.03.03.043.059.043.087a.196.196 0 00-.053.086c-.008.029.003.057.031.085.016.03.022.05.022.065 0 .012-.006.022-.022.022l-.16.352c-.035.079-.11.19-.224.33-.043-.055-.086-.077-.128-.062a1.2 1.2 0 01.214.554c.028.215.013.386-.043.514l.128-.107c.114.215.218.422.31.62.092.2.175.392.246.578-.057.072-.108.108-.149.108h-.15v.171a.142.142 0 01.042.106.22.22 0 00.022.106c-.029.158-.032.3-.011.43a.859.859 0 01-.01.36l-.087.923c-.028.312-.07.626-.128.94.058.029.1.07.128.13a.692.692 0 01-.064.245c-.028.05 0 .104.086.16.086.07.089.147.01.225-.077.077-.096.174-.053.288.13.243.207.442.236.6.028.07.035.146.02.224-.013.077-.005.139.022.181.058.114.111.236.161.364.05.127.11.257.182.385.014.028.01.064-.012.106l-.052.108c.071.157.12.274.15.352a.797.797 0 01.042.267c0 .058-.022.088-.064.088-.014 0-.03-.01-.043-.023.029.128.046.264.055.405.005.144.01.288.01.43.128.028.277.052.449.075.171.02.291.03.363.03.128 0 .268-.003.418-.01.15-.008.26-.053.33-.139a.414.414 0 00.107.075.37.37 0 01.106.075.287.287 0 00-.02-.097c-.014-.036.014-.053.086-.053a15.976 15.976 0 00.876.053 20.833 20.833 0 01.877.054c.071 0 .179.004.321.012.142.007.271-.005.384-.034a.532.532 0 00.151-.107c.042-.041.078-.063.107-.063a.428.428 0 01.235-.022.445.445 0 00.236-.02 4.76 4.76 0 00.342-.118.843.843 0 01.277-.074c.07 0 .186.009.342.03.158.021.271.06.343.119.157-.2.342-.309.556-.321.214-.015.42-.05.62-.107.214-.03.452-.055.716-.075.264-.022.431-.032.504-.032h.191c.057 0 .115.006.171.02.03.03.03.05 0 .066-.028.013-.007.021.065.021.028 0 .195-.008.503-.02.306-.016.637-.027.994-.035.356-.007.688-.018.994-.031.307-.015.474-.021.504-.021.07 0 .117-.043.137-.13.023-.084.068-.127.14-.127.071 0 .113.008.128.022.014.014.058.021.128.021a.43.43 0 00.236-.086.637.637 0 00.171-.15c-.114-.115-.125-.213-.031-.299.092-.086.187-.179.288-.28a5.742 5.742 0 01-.17-.769c-.044-.27.04-.547.256-.833a.436.436 0 01-.054-.074c-.021-.037-.025-.067-.01-.097a.728.728 0 01.095-.149.26.26 0 00.054-.171zm-14.158-9.56h-.086v-.129h.086v.128zm.15 11.035l-.15.063v-.085l.128-.064.022.086zm3.677-.043c-.213.058-.467.118-.759.182s-.577.125-.855.182c-.278.056-.52.108-.727.15a3.922 3.922 0 01-.353.064h-.384v-.921c-.03 0-.043-.01-.043-.032 0-.02-.015-.045-.044-.073l-.085.105c0 .03-.003.048-.01.053-.008.009.004.028.032.054l.02-.02c.03 0 .043-.015.043-.043 0 .099-.018.214-.053.342-.035.128-.061.25-.075.364 0-.028-.021-.057-.064-.086-.043-.029-.064-.078-.064-.15l.17-4.79h.066a2.344 2.344 0 01-.01-.407c.005-.142.01-.25.01-.322.213.015.402.02.566.013.163-.008.331-.008.503 0 .17.006.36.032.567.074.206.042.459.129.759.256a1.1 1.1 0 00-.29 0 3.471 3.471 0 00-.332.065l-.106-.107a.353.353 0 01-.224.086c-.079 0-.16-.005-.246-.013l-.29-.02a.941.941 0 00-.352.054h-.084a.523.523 0 00-.066.278c0 .114-.014.229-.042.343l.042 4.534c.114.028.254.031.418.01.163-.023.335-.05.513-.085.18-.038.36-.072.546-.107a2.71 2.71 0 01.534-.054c.085-.029.19-.05.31-.064.122-.014.24-.014.353 0h-.107a.143.143 0 00-.107.042c.114.043.22.058.32.043zm-3.078-1.754l-.065.129-.085-.021.085-.128.065.02zm0 .919h-.086v-.619h.086v.619zM48.9 56.157v-.451c0-.042-.022-.128-.064-.256a6.211 6.211 0 00-.171-.438c-.073-.162-.15-.334-.237-.512a3.57 3.57 0 00-.255-.46 8.263 8.263 0 00-.472-.652 3.244 3.244 0 00-.49-.525 1.84 1.84 0 00-.514-.32 5.337 5.337 0 01-.492-.236 2.04 2.04 0 00-.513-.182 15.13 15.13 0 01-1.508-.439 3.247 3.247 0 01-.803-.428 1.784 1.784 0 00-.32-.158.933.933 0 01-.256-.14c.085-.086.12-.158.106-.215a.463.463 0 010-.193c-.142-.054-.242-.054-.299 0 0-.142.042-.27.128-.385h.193a.76.76 0 01.288.085c.122.059.232.123.332.193.086.073.15.15.193.237a.357.357 0 00.149.17c.257.13.528.267.813.417.285.15.563.283.834.395a.51.51 0 00.16.022c.065 0 .125.015.182.044 0-.029.003-.054.011-.076.007-.02.046-.031.116-.031.073 0 .109-.013.109-.032 0-.022.034-.034.106-.034.071 0 .089.02.054.053-.036.038-.018.054.053.054.043 0 .09-.023.14-.074.05-.05.224-.053.523-.01a.62.62 0 00.224 0c.093-.014.168-.023.225-.023.072 0 .168.012.29.033.12.02.217.045.287.074v-.107c0-.041.016-.078.044-.106.014.028.029.046.043.053.014.008.02.018.02.033v.02-.257h-.063a.309.309 0 010-.276c.029.028.043.057.043.085v.086c.07-.214.113-.41.128-.588a5.04 5.04 0 000-.653 47.625 47.625 0 01-.043-.962c-.015-.385-.008-.891.021-1.518 0-.13-.007-.279-.021-.45a2.772 2.772 0 00-.064-.428l-3.188.47a.265.265 0 01-.095-.042 2.974 2.974 0 00-.16-.086 4.997 4.997 0 01-.235-.126c-.073 0-.101.005-.087.02.014.013.014.007 0-.02a5.35 5.35 0 00-.64-.216 2.845 2.845 0 00-.77-.106.612.612 0 00-.236.053.594.594 0 01-.214.053h-1.39c-.157 0-.39.047-.695.14a6.54 6.54 0 00-.91.352 6.195 6.195 0 00-.79.448c-.228.158-.343.31-.343.45-.028-.029-.025-.053.011-.075.035-.02.018-.032-.054-.032-.084 0-.192.093-.32.28a4.44 4.44 0 00-.364.64 9.163 9.163 0 00-.299.706 3.155 3.155 0 00-.15.47.24.24 0 01-.043.066l-.021.02c.029.072.024.16-.01.267a.47.47 0 00-.032.248v.769c.027-.072.045-.171.052-.3.008-.129.026-.243.054-.342.029.141.046.27.054.384.006.115.039.243.096.386-.086 0-.142-.012-.172-.032a.144.144 0 00-.084-.034c0 .115.01.193.031.237a.252.252 0 01.032.106c0-.099.05-.15.15-.15l.043.194a.12.12 0 01-.108.032.115.115 0 00-.106.03c.128 0 .193.045.193.129v-.053c0-.007.013-.024.043-.053.027.056.05.114.064.172a.185.185 0 01-.022.149 1.233 1.233 0 00-.172-.149v.192c.03.085.058.174.087.267.028.092.056.175.085.245a.173.173 0 01.064-.02c.014 0 .021.035.021.107 0 .071-.014.114-.041.128-.03.014-.044.05-.044.107-.042 0-.072-.007-.085-.021-.015-.015-.022-.03-.022-.044.071.2.178.407.32.62.143.215.315.378.514.492a2.118 2.118 0 01-.235-.277 9.043 9.043 0 01-.193-.278c.03-.029.044-.057.044-.087v-.041c-.058.056-.108.063-.15.02.042-.042.064-.056.064-.042v-.021a.2.2 0 00-.044-.107.514.514 0 00-.064-.086c-.029.028-.064.007-.105-.064.07-.028.112-.034.127-.011a.487.487 0 00.128.098c0-.03-.01-.066-.031-.11-.023-.04-.019-.077.01-.106.057.03.085.06.085.095 0 .038.014.069.043.098-.056.057-.085.114-.085.171.07-.043.092-.03.064.043a.874.874 0 00.075.117c.035.05.068.09.096.118v-.106c0-.044.014-.066.043-.066a.31.31 0 01.064.096c.014.036.035.055.064.055a.194.194 0 01-.054-.076c-.006-.02.005-.045.033-.075.07.116.15.217.235.311.085.093.157.168.214.224a.507.507 0 01-.053-.17.225.225 0 01.01-.128.952.952 0 01-.3-.237l-.213-.254a.201.201 0 00-.054.073.222.222 0 01-.053.075c-.03-.057-.021-.106.021-.148.043-.045.057-.08.043-.11a.892.892 0 00-.118-.129c-.035-.028-.053-.053-.053-.083 0 .03.01.042.032.042h-.074c-.073 0-.098-.013-.075-.042a.148.148 0 00.031-.087.566.566 0 00-.086-.32c.03.086.03.146 0 .183-.028.034-.042.088-.042.16a.34.34 0 01-.053-.15 1.26 1.26 0 01-.01-.171c0 .098-.044.107-.13.022l.066-2.118c0-.071-.005-.135-.012-.193a.29.29 0 01.032-.171c.014.03.028.047.043.053.014.009.021.019.021.034v.02a1.32 1.32 0 01.033-.45c.035-.142.081-.292.138-.449.086-.084.18-.198.279-.341.1-.142.185-.292.257-.45a6.986 6.986 0 011.239-.983c0-.1.05-.15.15-.15.072 0 .089.007.053.022-.035.014-.017.02.055.02a.65.65 0 00.203-.053c.091-.036.188-.07.288-.106.099-.036.196-.072.288-.108a.67.67 0 01.183-.054c.07 0 .099-.002.085-.01-.014-.007-.007.004.022.032a3.986 3.986 0 00-.503.193c-.15.07-.282.12-.396.15a3.29 3.29 0 00-1.09.642c-.3.27-.542.57-.727.898-.187.328-.322.67-.407 1.026a4.272 4.272 0 00-.129.984c0 .07.007.146.022.224l.042.225a5.686 5.686 0 00.13.64c.042.33.18.654.416.974.235.32.51.622.824.899.314.277.641.528.983.749.342.22.656.38.942.48l-.044.043c.058.028.128.058.215.086a.729.729 0 00.214.043.527.527 0 01-.118-.108c-.007-.013.003-.006.032.021a.1.1 0 01.096-.03c.036.006.068.01.096.01 0 .058-.014.1-.042.127-.015.016-.022.029-.022.044.27.114.563.254.877.416.313.165.634.326.963.483a.76.76 0 00.149.19c.072.073.107.137.107.194a.59.59 0 01-.053.17 2.573 2.573 0 01-.14.28.996.996 0 01-.203.255c-.078.072-.153.108-.224.108a1.16 1.16 0 01-.172-.021 3.799 3.799 0 01-.609-.161l-.288-.095-.107.106c-.03-.028-.022-.064.021-.106a17.122 17.122 0 00-.331-.44 2.119 2.119 0 01-.267-.439 2.798 2.798 0 00-.45-.234c-.172-.072-.292-.108-.363-.108-.072 0-.108.008-.108.021 0 .015-.035.022-.107.022-.07 0-.103-.018-.095-.053.007-.035-.027-.053-.097-.053a.326.326 0 00-.16.031.884.884 0 01-.182.075.744.744 0 01-.15-.095.25.25 0 00-.172-.055.46.46 0 00-.213.055.478.478 0 01-.215.052c-.07 0-.088.008-.052.021.035.015.018.022-.054.022s-.106-.014-.106-.043c-.014-.014-.014-.028 0-.04a1.118 1.118 0 00-.322 0 3.247 3.247 0 01-.341.019.21.21 0 01.106.042c-.114.115-.153.268-.117.46.035.194.053.383.053.568v2.994c.029.028.06.04.096.03a.108.108 0 01.097.033h2.438c.114.3.278.51.491.631.214.121.443.193.685.216.242.02.485.022.727.01a2.71 2.71 0 01.62.02c.03.029.044.05.044.065 0 .014.013.035.042.063-.029.028-.042.05-.042.065v.043h.095a.126.126 0 00.097-.043l.15.065a1.11 1.11 0 01.288-.054c.107-.008.21-.025.31-.053.129 0 .272-.018.428-.054a1.72 1.72 0 01.321-.053c.142 0 .339-.044.588-.13.25-.084.495-.184.738-.298.242-.113.46-.225.653-.331.192-.109.31-.183.352-.225a.573.573 0 00.14-.162c.049-.078.088-.124.116-.137a2.43 2.43 0 00.599-.674 4.37 4.37 0 00.418-.887 6.58 6.58 0 00.246-.962c.057-.33.084-.623.084-.879a.174.174 0 00.055-.096c.006-.035.038-.067.096-.095zm-11.592-5.518h-.086l-.064-.3h.107l.043.3zm.043-.578l-.15.087v-.087l.129-.064.021.064zm.277 2.396h-.085v-.13h.085v.13zm.258 7.913v-2.16c0-.029-.004-.1-.011-.215a11.349 11.349 0 00-.085-.813c-.022-.141-.04-.27-.055-.384a10.21 10.21 0 00-.052.813c-.008.27-.019.528-.033.769l-.064 1.605c0 .028.003.046.01.052a.05.05 0 01.012.034c0 .013.006.02.02.02-.028.143-.02.237.022.279l.086.064.15-.064zm-.043-1.754h-.085l-.065-.257h.085l.065.257zm.428-4.664l-.065-.149-.085.022.064.127h.086zm.556.258a.137.137 0 01-.128-.075.596.596 0 00-.087-.118l-.15.15c.03 0 .083.008.162.021.077.015.145.021.203.021zm1.39.835c-.03 0-.054-.019-.075-.055-.021-.035-.069-.053-.14-.053-.042 0-.1-.025-.17-.075a7.917 7.917 0 01-.235-.17 3.621 3.621 0 00-.247-.171c-.079-.05-.133-.077-.161-.077-.028 0-.05.023-.063.065-.014.044-.02.05-.02.024 0-.059-.009-.099-.023-.12a.665.665 0 00-.17-.117.48.48 0 00.16.225c.078.062.13.094.16.094.043.044.107.1.193.163a5.516 5.516 0 00.48.32.365.365 0 00.14.054c.113 0 .17-.035.17-.107zm-1.155 5.56l-.15.065v-.086l.128-.065.022.086zm.62-4.727h-.128v.086h.127v-.086zm.599 0h-.258v.086h.258v-.086zm1.776 4.107c-.144.028-.201.052-.172.075.028.02.043.096.043.223a17.391 17.391 0 00-.567-.246 6.067 6.067 0 00-.589-.202v-.514c.2.114.41.227.631.332.221.108.439.218.654.332zm-.386-12.94l-.792.065v-.086l.792-.086v.107zm.599 2.652c-.185.186-.307.37-.364.555 0-.028.029-.113.086-.255a.528.528 0 01.278-.3zm-.171 5.818l-.128-.065-.021.065.127.085.022-.085zm.235-4.534l-.064.064-.171-.129.042-.064.193.13zm.213-.449l-.063.063-.194-.276.086-.045.171.258zm-.02 5.261l-.193-.087v.087l.171.064.021-.064zm.106-4.662l-.234-.128-.023.084.236.13.021-.086zm.15 11.593a.575.575 0 00-.129.02.654.654 0 01-.128.021c.086-.058.128-.122.128-.192.086.084.13.134.13.15zm1.84-14.609l-.087.043a63.6 63.6 0 00-.812-.472c-.3-.169-.57-.262-.813-.277h.279a.204.204 0 01.191.065.267.267 0 00.193.085c.071 0 .09-.01.054-.032s-.018-.032.053-.032c.058 0 .093.027.107.085.014.057.057.086.128.086.072 0 .097-.02.076-.054-.022-.035-.018-.053.01-.053.03.029.04.05.033.065a.412.412 0 01-.054.062c.071.059.178.116.32.171.142.057.25.144.322.258zm-1.327 8.533l-.128-.128-.064.064.128.128.064-.064zm.599 6.032h-.235c.028-.029.067-.066.117-.107.05-.042.09-.079.118-.109.086.088.086.157 0 .216zm2.866-9.304l-.406-.277-.043.063.407.299.042-.085zm-.235-1.732h-.129v.106h.13v-.106zm.32.063h-.235v.086h.236v-.086zm1.968 5.626h-.107v-.256h.107v.256zm27.723-.684c-.03.1-.078.19-.145.266a1.136 1.136 0 00-.142.205l-.066-.087a.338.338 0 00.078-.118.37.37 0 01.076-.116l-.264.063c0-.07.023-.15.07-.234a.422.422 0 01.14-.17h.066c0-.03-.019-.073-.056-.13a.74.74 0 00-.103-.129.393.393 0 01-.138.298 2.07 2.07 0 01-.129.473 6.842 6.842 0 01-.257.577c-.1.199-.21.388-.33.568a2.428 2.428 0 01-.375.437 1.023 1.023 0 00-.268.29 1.007 1.007 0 01-.267.287c-.157.116-.32.239-.492.375a4.498 4.498 0 01-.47.331 3.36 3.36 0 01-.482.236 7.43 7.43 0 01-.502.181l-.406.128a.995.995 0 01-.214.055c-.072 0-.104.002-.097.01l-.031-.032c.898-.228 1.642-.595 2.233-1.1A6.03 6.03 0 0075.37 57.6a7.221 7.221 0 00.726-2c.141-.699.212-1.36.212-1.99 0-.07-.014-.21-.043-.416a12.52 12.52 0 00-.086-.545 6.088 6.088 0 00-.268-1.315 5.033 5.033 0 00-.698-1.401l.054.053c.007.007-.024.01-.096.01-.072 0-.1-.02-.087-.064a.44.44 0 00.022-.15c.042.043.022.064-.065.064a.643.643 0 01-.064-.214c0 .015-.008.03-.02.044h-.023a.277.277 0 01-.064-.096.253.253 0 01-.022-.076 7.892 7.892 0 00-.838-.94c0 .028.012.053.033.075.02.02-.004.03-.076.03-.07 0-.128-.038-.171-.118a.342.342 0 00-.171-.159c-.316-.2-.624-.37-.924-.514l.085-.063c.114.07.25.136.406.192.156.058.292.122.406.193a2.992 2.992 0 00-.47-.375 4.072 4.072 0 00-.566-.308 3.964 3.964 0 00-.556-.205 1.718 1.718 0 00-.415-.075 9.7 9.7 0 01.576.321c.215.128.35.192.407.192.07 0 .103.006.097.01-.008.008.003.027.032.055h-.064a4.768 4.768 0 00-1.593-.385c-.52-.03-1.051-.07-1.59-.128.198-.071.32-.164.362-.279a.783.783 0 00-.288-.373.627.627 0 00-.332-.118c-.07 0-.224.029-.459.085-.234.058-.43.115-.586.171-.072-.113-.107-.199-.107-.256a4.044 4.044 0 00-1.003.374c-.342.177-.655.353-.941.524a.755.755 0 01-.212.054.536.536 0 00-.213.074c-.286.157-.526.37-.726.642l-.662.898a.123.123 0 01-.041-.085v-.022c0 .03-.016.057-.044.086a.182.182 0 00-.023.064c.057-.086.087-.078.087.022a1.154 1.154 0 00-.15.18 4.233 4.233 0 01-.129.184.21.21 0 01-.127.053c-.057.007-.093.017-.107.032-.244.6-.439 1.229-.588 1.891a9.973 9.973 0 00-.225 2.215c0 .028.004.089.01.181.008.093.015.198.022.31.007.116.017.233.032.353.014.122.021.224.021.31.242.798.45 1.591.62 2.375.072.085.136.185.192.299a.746.746 0 00.193.256.242.242 0 01.022.108c0 .043.006.079.02.108.1.07.179.144.236.223.057.08.1.146.129.203.042.058.092.131.149.224l.15.246a.36.36 0 01.16.055c.064.036.124.068.181.095-.028.028-.043.055-.043.075v.075c0-.042.022-.086.064-.128.115.114.225.228.332.343.107.113.204.227.288.34 0 .03.019.037.055.022.035-.013.066-.007.095.022-.029.029-.035.064-.02.107.013.043.013.07 0 .086.07.07.177.143.32.213a7.514 7.514 0 00.908.375c.15.05.267.097.353.139l.106.108c.2 0 .396.026.588.085.193.055.325.084.396.084.029 0 .114.003.257.012.143.005.292.012.449.02.156.008.306.014.448.022.142.008.228.01.257.01.071 0 .089.008.053.021-.036.015-.018.021.054.021h.523c.122 0 .25-.003.386-.009a1.533 1.533 0 00.717-.204.884.884 0 01.426-.106.951.951 0 00.245-.064 4.7 4.7 0 00.418-.172l.48-.214a3.12 3.12 0 00.418-.213c.257-.128.526-.32.811-.578.285-.257.521-.492.707-.704a3.18 3.18 0 00.352-.44c.12-.179.218-.339.29-.482l-.109-.105.087-.086c.085-.029.141-.074.17-.14.029-.064.079-.153.15-.267.157.057.22.108.192.15.073-.129.122-.267.15-.417.028-.151.057-.288.086-.417zm-12.848-2.631h-.084v.3h.084v-.3zm.172-2.202h-.086l-.063.32h.085l.065-.32zm1.347 7.614l-.107-.064-.064.041-.258-.298.258.257.105-.108c.03.028.04.057.034.086-.007.03.003.058.032.086zm1.582-7.23h-.085l-.107.578h.085l.107-.578zm.022-.192c0 .013-.015.035-.043.063l-.043.045c.057 0 .086-.012.086-.033v-.075zm6.635 2.01a.432.432 0 00-.128-.15.311.311 0 00-.192-.064.62.62 0 00-.277.096.639.639 0 00-.236.204c.03.072.044.16.044.268 0 .106.014.217.043.33-.114 0-.192-.014-.236-.043a1.032 1.032 0 00-.106.502c0 .208-.02.404-.064.59-.072.029-.132.1-.181.215a4.75 4.75 0 00-.14.351 2.657 2.657 0 01-.138.332c-.05.1-.11.15-.181.15-.07 0-.093-.011-.064-.033.029-.021.006-.032-.064-.032-.056 0-.11.05-.16.15a.821.821 0 01-.139.215.913.913 0 01-.181.117 5.391 5.391 0 01-.704.31.94.94 0 01-.288.064 4.8 4.8 0 00-.405.032 4.395 4.395 0 01-.405.032 1.07 1.07 0 01-.288-.064 2.095 2.095 0 01-.395-.172 1.715 1.715 0 01-.438-.33c-.15-.152-.267-.267-.352-.354a.662.662 0 00-.192-.16.433.433 0 01-.192-.225.39.39 0 010-.256.718.718 0 00.043-.172 1.623 1.623 0 01-.181-.46 9.44 9.44 0 01-.13-.578 11.678 11.678 0 01-.083-.544 3.274 3.274 0 01-.032-.386c0-.07.006-.1.02-.095.015.008.036-.003.065-.032-.057-.727.007-1.355.19-1.883.185-.526.525-.976 1.02-1.347a.21.21 0 01.055.108.19.19 0 00.052.106.39.39 0 00.236-.233.118.118 0 00-.108-.035.244.244 0 01-.149-.03.142.142 0 00.085-.034c.028-.02.058-.018.086.011v-.236c-.028.029-.058.06-.086.096-.029.038-.057.054-.085.054.028-.027.032-.053.01-.075a.112.112 0 00-.075-.031.365.365 0 00.14-.119.191.191 0 01.161-.074c.07 0 .087.011.052.034-.035.02-.017.03.054.03.056 0 .125-.02.203-.064a.874.874 0 00.203-.15l.427.087h-.3c-.03.056-.031.099-.01.127.021.03.032.078.032.151a4.923 4.923 0 01.812-.106c.057 0 .157.02.298.062a7.467 7.467 0 01.833.311c.114.05.178.075.193.075.07.07.148.153.233.246a.828.828 0 01.172.245c.114.244.195.5.246.77.05.272.117.542.204.813.027 0 .06-.014.095-.043a.41.41 0 00.096-.127c.029.142.058.29.086.448.027.158.056.313.084.47.029.03.061.042.097.042h.14c.028-.028.042-.034.042-.02v-.085a1.92 1.92 0 00-.043-.332l-.086-.438a4.417 4.417 0 00-.481-1.391 2.425 2.425 0 00-1.144-1.07c-.043-.027-.106-.074-.193-.138a.405.405 0 00-.235-.097c-.07 0-.096.009-.075.022.022.015-.004.021-.074.021a.723.723 0 01-.225-.064.65.65 0 01-.203-.107c-.158 0-.338-.008-.546-.02a7.893 7.893 0 00-.416-.023l-.043.064a2.564 2.564 0 00-.524.204 3.812 3.812 0 00-.503.31c-.157.115-.303.225-.439.332a3.36 3.36 0 00-.287.245v.022h.042a.506.506 0 01-.107.16 5.375 5.375 0 01-.193.204.478.478 0 00-.086.18 2.822 2.822 0 01-.085.246l-.042.045c-.015.013-.051.02-.108.02.172-.484.378-.872.621-1.165a2.795 2.795 0 011.668-.996c.299-.056.591-.085.877-.085a3.07 3.07 0 01.459.108c.093.029.185.053.278.075.093.021.154.031.183.031.07 0 .096-.01.074-.03a.106.106 0 01-.032-.076c.156.1.324.193.503.277.178.087.374.193.588.32a.24.24 0 01.16.066c.05.043.09.086.117.128l-.02-.022h-.042c.199.258.383.5.555.728.17.228.248.441.235.642.013-.044 0-.097-.042-.162a3.037 3.037 0 00-.15-.202c-.03.184-.019.41.031.674.05.262.11.466.181.61.114-.072.162-.196.14-.375-.022-.178-.04-.34-.053-.481a17.116 17.116 0 01.191.898l.074.417c.022.12.033.203.033.246v.577zm-5.701 2.44h-.064l-.064-.13.064-.02.064.15zm.022-5.648h-.108v.194h.108v-.194zm1.558-3.55h-.343v.086h.343v-.086zm.705 2.716h-.406v.086h.406v-.086zm6.897 3.999c0 .071-.014.225-.042.46a7.754 7.754 0 01-.102.652v-.117a.36.36 0 00-.042-.161.287.287 0 00-.062.106.257.257 0 01-.061.108c.028-.086.046-.178.053-.277a.57.57 0 01.097-.279.197.197 0 01-.17-.084c-.028.07-.047.16-.061.267a1.034 1.034 0 000 .288 1.607 1.607 0 01-.072-.268 1.696 1.696 0 01-.03-.331v.022c0 .041.015.07.043.084.014-.17.028-.359.043-.566a9.915 9.915 0 000-1.283 3.295 3.295 0 00-.086-.567h-.022c-.014 0-.022.023-.022.063v-.021c0-.013.004-.02.012-.02s.01-.015.01-.043c0-.073-.04-.217-.117-.438a10.22 10.22 0 01-.204-.632 4.48 4.48 0 00-.729-1.561 6.323 6.323 0 00-2.593-2.064 4.753 4.753 0 00-1.37-.374 11.46 11.46 0 01-.494-.074l-.556-.096c.028-.029.034-.055.021-.075-.014-.023-.035-.031-.065-.031a.85.85 0 01.385-.088c.044 0 .122.008.236.022.113.014.246.031.394.054.15.02.306.04.47.053.164.014.31.029.437.042a1.11 1.11 0 00-.084-.075 1.194 1.194 0 01-.13-.117c.016 0 .029-.006.044-.02.014-.016.029-.023.043-.023.014 0 .02-.014.02-.042.912.3 1.674.73 2.285 1.292a7.124 7.124 0 011.474 1.883c.37.693.637 1.416.802 2.172.162.756.245 1.476.245 2.159zm-4.42-3.335l-.064-.172-.086.043.064.129h.085zm.192-3.678v-.067l-.256-.062v.086l.256.043zm2.093 2.352l-.065.063-.128-.128.064-.064.129.129zm.491 9.345h-.086v-.214h.086v.214zm.32-.62l-.086-.02-.213.404.064.022.234-.407zm.15-.492h-.066l-.063.256h.087l.042-.256zm.213-.385h-.085v.257h.085v-.257zm.255.042a.104.104 0 00-.03-.074c-.023-.022-.049-.046-.075-.074-.045.043-.066.077-.066.106v.042c.071-.042.128-.042.171 0zm.129-.6l-.085-.041-.064.15.085.021.064-.13zm.213-1.346c0-.07-.03-.135-.096-.192-.064-.057-.095-.114-.095-.171v.428c-.015.057-.01.086.02.086.014 0 .021-.007.021-.023a.74.74 0 00-.064.184c-.014.063-.007.108.023.137a2.54 2.54 0 00-.066.224.614.614 0 00.021.269c.03-.129.076-.3.14-.514.065-.212.096-.357.096-.428zm.014.9l-.062.213-.082-.043.061-.17h.083zm.17-2.097h-.107l-.042-.428h.085l.065.428zm-.064 0H76.6v.322h.085v-.322zm8.28-.364l-.192-.149a.33.33 0 00-.16.096 1.59 1.59 0 00-.14.16c-.027-.015-.04-.028-.04-.042 0-.015-.01-.029-.023-.043-.014-.015-.02-.029-.02-.043l.02-.022c.029-.028.043-.056.043-.085a.887.887 0 01-.16-.16 2.21 2.21 0 00-.182-.203.25.25 0 01-.074-.15.574.574 0 00-.053-.172 1.257 1.257 0 01-.246-.288 7.415 7.415 0 01-.202-.331.28.28 0 00-.064-.183c-.043-.05-.08-.09-.107-.117a1.746 1.746 0 00-.225-.395 1.13 1.13 0 01-.202-.461.19.19 0 00-.097-.054c-.035-.007-.06-.024-.074-.052a.153.153 0 00-.043-.151l-.107-.107v-.042c0-.014.003-.033.011-.054a.208.208 0 00.011-.072c0-.03-.008-.024-.022.019-.014.043-.035.064-.064.064-.1-.2-.192-.392-.279-.577a13.252 13.252 0 00-.267-.471 2.01 2.01 0 00-.29-.384c-.314-.6-.722-1.249-1.221-1.947h-2.617V59.43v-.108a.156.156 0 00-.039-.106c-.054.042-.066.128-.04.256a3.446 3.446 0 01-.09-.214.667.667 0 01-.05-.234v-1.497c0-.043-.003-.122-.01-.236-.006-.115-.017-.275-.03-.482a32.35 32.35 0 01-.04-.865c-.028.1-.067.152-.117.16-.05.007-.025.04.074.096.015.043 0 .1-.042.171a.42.42 0 00-.065.214 2.3 2.3 0 01-.085-.203.661.661 0 01-.042-.224l.319-6.758c0-.315.003-.575.01-.782.008-.207.012-.395.012-.567v-.514c0-.17-.008-.362-.022-.574h2.818c.143 0 .228.005.256.02a175.62 175.62 0 012.05 3.155 242.93 242.93 0 012.22 3.56zm-7.343 2.181l-.042-.513h-.108l.065.513h.085zm.772-1.113v-.15a.358.358 0 00-.012-.19.507.507 0 01-.031-.172 8.572 8.572 0 01-.065-.674 5.096 5.096 0 010-.673l-.053 1.026-.064 1.113a99.527 99.527 0 00-.075 1.348c0 .07.007.104.021.104h.043a.683.683 0 000 .344c.029.144.057.229.086.257.027-.2.042-.402.042-.61v-.523c0-.158.011-.35.033-.58.02-.225.009-.427-.033-.598.013-.027.018-.048.011-.063-.008-.015.002-.037.031-.065.016.028.029.048.044.056.013.006.022.016.022.03v.02zm10.265.471v-8.212a17.789 17.789 0 00-.447-.17 1.31 1.31 0 00-.446-.086 2.67 2.67 0 00-.307.02.587.587 0 01-.287-.02.419.419 0 01.191-.044h.192a3.336 3.336 0 00-1.042.044 5.41 5.41 0 00-.977.256v1.454c0 .072.011.14.033.203.02.064.039.126.053.182 0 .115.003.247.01.397.007.148.011.296.011.438v3.946c0 .32-.004.623-.01.91-.008.282-.018.52-.032.704a7.206 7.206 0 01-.678-1.112.34.34 0 01.181.074c.036.035.054.062.054.076a2.78 2.78 0 01-.203-.322.701.701 0 00-.182-.212.1.1 0 01.033.096c-.008.035-.025.053-.053.053a.413.413 0 00-.107-.043h-.043c.142.2.276.409.398.632.123.221.241.415.357.587.057.186.137.342.236.47.102.129.109.293.023.492a344.037 344.037 0 00-1.998-3.303 102.917 102.917 0 00-2.084-3.262c-.2-.314-.392-.63-.577-.952-.186-.32-.377-.624-.577-.908a.16.16 0 00-.054-.02h-.118c-.07 0-.157.02-.256.062a.687.687 0 01-.256.063c.029-.042-.015-.063-.129-.063-.113 0-.184.013-.213.042a.704.704 0 00-.203-.032 5.461 5.461 0 00-.352-.01h-.492a.095.095 0 01-.011.042.092.092 0 00-.011.043.058.058 0 00-.021.043.92.92 0 01.054.268c.006.105.009.196.009.267.029.014.054.02.075.02.022 0 .047.016.075.044l-.064 4.32c.013.114.025.245.033.395.007.15.013.298.022.44.006.142.009.27.009.384v6.438h.268a.72.72 0 01.267.043 2.479 2.479 0 01-.332.14c-.107.034-.173.074-.203.117.186.157.446.28.781.373.335.093.618.14.846.14.07 0 .174-.004.308-.013.136-.005.254-.024.354-.053-.03-.341-.047-.697-.054-1.068-.008-.371-.01-.728-.01-1.07 0-.07.07-.105.214-.105l-.15-3.7c0-.072.018-.137.054-.194a.593.593 0 00.075-.193c.013-.24.013-.48 0-.717l-.044-.715.044-.022 2.322 3.679a.28.28 0 01.128.108 1 1 0 01.117.193c.035.07.067.139.095.202.03.064.051.104.065.118.099.098.198.202.298.308.1.11.206.183.319.225l-.063.066h-.022c.07.099.143.213.213.341a26.078 26.078 0 00.81 1.338c.228.349.447.694.661 1.035.1.059.206.087.32.087.07 0 .142-.007.212-.022.071-.015.128-.006.17.022l.149-.106c.015 0 .005.017-.032.052-.035.035-.017.054.055.054.07 0 .092-.01.064-.032-.029-.022-.007-.031.064-.031.07 0 .103.017.096.052-.008.034.024.053.097.053.07 0 .106-.019.106-.053 0-.035.036-.052.107-.052.07 0 .097.017.075.052-.022.034.004.053.074.053.072 0 .11-.01.119-.032.006-.02.024-.038.053-.054.028-.013.05-.01.064.012.015.021.057.032.13.032.07 0 .08-.02.03-.054-.05-.035-.04-.052.033-.052.07 0 .17.002.299.01.128.007.25.01.364.01a.386.386 0 01-.044-.182v-.138c0-.157.008-.319.022-.481.016-.165.022-.297.022-.396l-.064-.044c.028-.14.04-.289.03-.437a2.014 2.014 0 00-.052-.395c-.042.04-.065.02-.065-.065.115-.113.164-.272.15-.472a4.938 4.938 0 010-.663.532.532 0 00-.053-.222.435.435 0 01-.032-.248c.057-.057.08-.084.064-.084a.213.213 0 01-.085-.13.318.318 0 010-.17c0-.086.003-.193.01-.323.008-.127.015-.255.02-.383.01-.129.023-.25.044-.363a.69.69 0 01.075-.236h-.042a.133.133 0 01-.044-.096.132.132 0 00-.042-.096l.064-.065.064.065v.042c0-.029.021-.038.064-.032.042.008.065-.025.065-.096zm-10.287-6.671h-.086v-.15h.086v.15zm0 .79h-.086v-.256h.086v.255zm.064 5.732h-.085v-.256h.085v.256zm.042-3.315h-.085v.15h.085v-.15zm1.583 8.748v-.108l-.513-.042v.086l.513.064zm.749-7.443a6.578 6.578 0 01-.033-.845 3.266 3.266 0 00-.074-.802 3.154 3.154 0 00-.396-.834c-.192-.3-.318-.549-.375-.75 0 .302-.013.614-.041.943-.03.328 0 .648.085.96.071.244.2.48.384.708.186.228.336.435.45.62zm.441-3.978l-.062-.171-.066.043.066.128h.062zm.214 3.743l-.064-.172-.064.043.064.13h.064zm.107.147h-.064l-.065-.126.065-.02.064.146zm.115.088l-.086-.088-.043.067.065.063.064-.042zm1.55-1.732l-.065-.171-.085.044.064.127h.086zm.042 1.176l-.064-.214-.064.021.064.193h.064zm.107-.92h-.064l-.064-.128.064-.022.064.15zm.215.3l-.172-.3-.064.043.17.298.066-.04zm.212.406h-.064l-.17-.342.063-.043.17.385zm.278.342l-.236-.363-.064.063.215.342.085-.042zm.491.942a.356.356 0 00-.074-.193 1.617 1.617 0 01-.119-.193c.03-.043.072-.03.128.043a2.24 2.24 0 01-.319-.406.148.148 0 01-.043.106.057.057 0 00-.021.041c.07.116.145.224.224.323.077.1.152.192.224.279zm.184-.066a.569.569 0 00-.01-.096.205.205 0 00-.054-.096c-.03 0-.033.025-.011.075.02.05.046.09.075.117zm.877-5.709h-.085v.149h.085v-.149zm.108 8.661h-.086v.15h.086v-.15zm.213.664a5.598 5.598 0 01-.183-.6.236.236 0 01.163.236c0 .114.007.235.02.364zm-.064-1.198h-.078v-.214h.078v.214zm.3.3a2.391 2.391 0 01-.054-.43 2.622 2.622 0 00-.053-.427l-.086-5.475-.021 1.733c0 .07.003.192.01.364a.76.76 0 01-.075.407v-.043h.022c.013.142.028.306.043.491a7.259 7.259 0 010 1.058 1.605 1.605 0 01-.086.418c.014-.013.029-.022.043-.022l.02.022c.016.271.016.553 0 .845a4.75 4.75 0 00.023.801c.027.03.045.079.053.15a.73.73 0 00.054.213c.013.014.041 0 .085-.041.014-.015.021-.036.021-.065zm0 .427a.225.225 0 00-.075-.173c-.051-.04-.09-.063-.118-.063-.028 0-.043.023-.043.063a.189.189 0 00-.021.066l.043.021c0 .072.017.153.053.245a.874.874 0 00.139.248c0-.086.003-.157.011-.215.006-.057.01-.12.01-.192zm.3 1.583v-.193a1.145 1.145 0 00-.13-.416 1.576 1.576 0 01-.15-.417v.234c-.014.073.014.192.086.364.07.17.135.314.193.428zm2.051-11.25h-.149v.085h.15v-.085zm-.042 9.838h-.085v-.193h.085v.193zm.171.642h-.087v-.685h.087v.685zm-29.169-.829h.083v-.25h-.083v.25zm-1.02-9.95h-.208v.082h.208v-.082zm-4.37 4.498c-.003.01 0 .02.018.04-.008-.013-.012-.027-.018-.04zm.122.205a2.603 2.603 0 00-.02.573 3.07 3.07 0 01-.021.616c-.111-.25-.153-.48-.125-.687a2.62 2.62 0 00.02-.564c0 .07-.02.12-.061.148a.623.623 0 00-.073-.064.068.068 0 01-.032-.061v4.995c-.014.445-.052.86-.113 1.25a3.429 3.429 0 00-.011 1.104l.124.063.062-.149.084.086c0 .207.004.418.01.634.007.215.032.426.073.635a.143.143 0 00.084-.032c.027-.02.07-.03.125-.03v-8.14a.358.358 0 00-.032-.22.584.584 0 00-.093-.157zm-.207 7.018h-.084v-.145h.084v.145zm.208-5.622h-.084v-.146h.084v.146zm4.538 2.124h.084v-.145h-.084v.145z" fill="#FFEA00"/><path fill-rule="evenodd" clip-rule="evenodd" d="M54.107 50.243c.021.068.06.132.114.187l-.082.083c-.07 0-.104-.028-.104-.083 0 .055.007.112.02.166a.724.724 0 01.021.169l.125-.106c.028.028.039.053.03.072a.581.581 0 00-.01.137v.157c0 .033-.027.072-.082.113a.14.14 0 01-.042-.105v.063c0 .04.009.073.023.106.002-.005.002-.01.008-.012a.204.204 0 00.073-.052.192.192 0 01.052.104.183.183 0 00.051.103.231.231 0 00.023-.165.529.529 0 01-.023-.126V49.93h-.013v-.014l-.368-.002c.009-.017.017-.034.028-.045h.063a1.683 1.683 0 00-.126-.157c-.055-.06-.098-.086-.124-.072.024.094.04.184.054.272a68.629 68.629 0 01-1.7-.03v-.05h-.125v.044c-.596-.017-1.206-.04-1.83-.064v-1.54c0-.07.01-.108.03-.115a.211.211 0 00.074-.052c-.07 0-.105-.026-.105-.084.028-.027.052-.038.074-.03.02.006.03-.025.03-.093a.827.827 0 00-.052-.262.874.874 0 01-.052-.259c0-.07.021-.109.064-.115.04-.007.055-.024.04-.053-.07.03-.114.067-.136.117a.423.423 0 01-.071.113c.027.18.044.35.05.51.009.16-.002.296-.03.406a.2.2 0 01-.063-.147.26.26 0 01-.083.189.432.432 0 01-.01-.25c.02-.097.046-.202.073-.312a.195.195 0 01-.073.051c-.021.008-.031-.024-.031-.094 0-.068.01-.104.03-.104.022 0 .047-.013.074-.04h-.063a.365.365 0 01-.083-.23c0-.07.01-.096.031-.084.02.015.06.022.115.022v-.189a.618.618 0 01-.094-.008c-.035-.008-.052-.046-.052-.116 0-.05-.005-.072-.013-.077a.573.573 0 00-.091.274v2.988h3.976c.046 0 .207 0 .378-.003l.007.019zm.052.062a2.641 2.641 0 01-.04-.082l.14-.003c-.02.047-.053.077-.1.085zm-4.331-3.346c.005-.002.007.005.01.006l.011-.027c-.01.011-.015.017-.02.02z" fill="#FFEA00"/><path fill-rule="evenodd" clip-rule="evenodd" d="M50.016 47.126h.23v-.104h-.23v.104zm2.624-.145h-.188v.082h.188v-.082zm-.313.103h-.187v.083h.187v-.083z" fill="#FFEA00"/><path fill-rule="evenodd" clip-rule="evenodd" d="M52.192 47.229c.008 0 .024.015.052.044a7.917 7.917 0 00-.75-.054 9.881 9.881 0 00-.79.01.661.661 0 00-.167.126h-.311l2.934.062c.166-.07.347-.107.542-.115.193-.007.346-.01.457-.01a.53.53 0 00-.374-.198 1.263 1.263 0 00-.354-.01h.104c.042 0 .076.02.103.062-.027.041-.048.055-.061.041a.092.092 0 00-.063-.02c.014 0 .035.014.063.041l.02.02c-.083.03-.152.05-.208.064a.805.805 0 01-.188.02c-.152 0-.256-.048-.31-.146a1.52 1.52 0 01-.397.063h-.302zm-.572-.125l-.146-.083-.021.083.125.063.041-.063zm-1.416-.165l-.25-.063v.082l.25.064v-.083zm.562.082l-.334.063v.082l.334-.04v-.105zm.583 0l-.5.063v.082l.5-.04v-.105z" fill="#FFEA00"/><path fill-rule="evenodd" clip-rule="evenodd" d="M53.369 47.084l-.23-.042v.062l.23.063v-.083z" fill="#FFEA00"/><path fill-rule="evenodd" clip-rule="evenodd" d="M60.946 47.105c-.027 0-.125-.003-.292-.01a71.636 71.636 0 00-.56-.021c-.21-.008-.417-.011-.626-.011-.208 0-.374.008-.5.021a.437.437 0 00-.145.125.21.21 0 01-.052-.073c-.007-.02-.023-.038-.053-.052-.485.014-.985.01-1.497-.01-.515-.02-.987-.024-1.417-.011a1.827 1.827 0 01-.333.01 4.975 4.975 0 00-.313-.01.143.143 0 00.105.041c.041 0 .076.015.103.043l.043.062-.166.043c-.14-.139-.275-.207-.408-.198a1.24 1.24 0 01-.364-.032c-.027.112-.072.129-.135.052a.595.595 0 00-.177-.155.372.372 0 01.084-.064.34.34 0 00.083-.061h-.77a.624.624 0 00-.218.051c-.09.035-.164.065-.22.094a.705.705 0 01.53 0c.189.069.38.103.573.103a.11.11 0 01-.103.032.651.651 0 00-.104-.011c.055.028.1.076.136.146.034.07.078.103.134.103.022 0 .069.003.146.008v.014h.49c.145 0 .28.003.404.01.126.008.203.011.23.011h2.166c.346 0 .73-.007 1.154-.02.4-.014.737.017 1.018.091-.002-.002-.008-.005-.008-.009v-.02c.14.028.275.038.406.03a7.75 7.75 0 00.386-.03c.304.028.554.038.749.03.194-.006.346-.013.458-.02a.905.905 0 01.25.01c.055.014.09.056.104.125H50.432v2.102h3.082a.633.633 0 00.208-.042c.084-.026.14-.06.166-.102.07.069.171.099.302.093.132-.008.233-.01.302-.01a.302.302 0 00.041.003v3.905c0 .028.008.132.02.313.015.179.029.384.044.613a243.66 243.66 0 00.083 1.322c.013.028.027.038.041.032.014-.008.02.024.02.094v1.373c0 .07-.016.109-.051.114a.098.098 0 00-.073.053l-.051.468a4.224 4.224 0 00-.033.386v.729a.433.433 0 00.127-.231 1.02 1.02 0 01.061-.228l.02 1.686c0 .055.02.111.054.168.033.054.065.11.093.166a.96.96 0 00.062.322.756.756 0 00.115.207c.048.063.12.095.218.095.07 0 .194-.008.375-.02.181-.015.326-.008.437.02-.027.027-.034.055-.02.084a.173.173 0 01.02.082h.646c.028 0 .11-.01.25-.031.138-.02.284-.045.437-.073.153-.027.298-.052.437-.073.139-.02.23-.03.271-.03.055 0 .093.016.114.05.02.035.066.053.136.053.068 0 .135-.042.197-.125.063-.083.129-.152.198-.209.014-.318.025-.631.031-.937.007-.305.025-.617.053-.934 0-.057.023-.11.072-.158a.216.216 0 00.072-.155 3.12 3.12 0 00-.02-.252 32.38 32.38 0 00-.052-.435c-.02-.168-.042-.335-.063-.5a3.687 3.687 0 01-.03-.438 4.292 4.292 0 01-.011-.79 3.134 3.134 0 00-.01-.688 1.809 1.809 0 00-.074-.332.908.908 0 01-.052-.251v-1.437c0-.055.007-.083.022-.083h.042a.142.142 0 00-.033-.083.614.614 0 01-.051-.083c.042-.193.056-.409.042-.646a2.657 2.657 0 01.02-.602 1.008 1.008 0 01-.083-.105.31.31 0 01-.063-.187c0-.056.004-.126.01-.208a.57.57 0 01.053-.21c.027-.054.069-.072.125-.05.056.02.076.003.063-.053v-1.16h4.766v-3.02h-2.664zM58.198 57.53h-.084v-.355h.084v.355zm-8.015-8.51h.104v-.708h-.104v.708z" fill="#FFEA00"/><path fill-rule="evenodd" clip-rule="evenodd" d="M59.893 47.426c.009.008.023.012.054.012l-.054-.012zm29.954-4.791h.087v-.199h-.087v.199zm-.331-11.029c0-.023.007-.053.01-.08-.002.004-.01.012-.01.014v.066zm.331 11.579h.087v-.264h-.087v.264zm-.056 6.001c0-.023.007-.053.009-.08-.002.005-.009.013-.009.015v.065zm.321 10.713h.085v-.193h-.085v.193zm0 .535h.085v-.257h-.085v.257z" fill="#FFEA00"/><path fill-rule="evenodd" clip-rule="evenodd" d="M100.842 43.227a10.15 10.15 0 00-.011-.791 25.3 25.3 0 00-.055-.803 7.55 7.55 0 01-.034-.584c-.043.03-.073.044-.088.044h-.131a.737.737 0 01-.331-.088v-1.167h-4.357c-.031 0-.107-.003-.233-.01-.124-.008-.264-.014-.417-.022a12.607 12.607 0 01-.474-.032 14.934 14.934 0 01-.397-.044c.06-.295.115-.596.166-.902a8.19 8.19 0 00.09-.747h1.63l.14-.022.866-.03-1.736-.024v-.035h1.872l.613-.078-1.005-.036h-2.276a.396.396 0 00-.173-.075.535.535 0 01-.187-.056h4.776a5.08 5.08 0 00-.02-.573c-.016-.087-.007-.146.02-.175.03 0 .04.008.024.022-.015.015.015.021.088.021s.155-.038.242-.12c.088-.08.169-.18.242-.297.03-.045.045-.095.07-.142l-.457-.611.104-.633h-.246a.919.919 0 01-.055-.243 3.287 3.287 0 01-.012-.265h-4.82v-1.892h5.922v-2.368l-.294-.115-.236-.576h-9.287c-.074.103-.187.151-.342.142a1.11 1.11 0 01-.34-.055.31.31 0 00.066-.121c.014-.052.007-.09-.022-.12h-.199c0 .043.036.088.11.131a.918.918 0 00-.132.285 1.378 1.378 0 00-.021.266l-.044.088a9.02 9.02 0 01-.078-.332 1.356 1.356 0 01-.033-.284c-.074.322-.084.64-.033.956.051.316.085.606.099.87 0-.19.037-.41.11-.66.03.029.045.051.045.066v.044c0-.074.013-.132.043-.176.103.117.147.224.133.319a.788.788 0 01-.067.231.216.216 0 01-.11-.198.99.99 0 01-.022.198c-.009.045-.01.08-.012.119.003-.014.01-.03.035-.053.043.117.058.205.043.265-.03 0-.033-.008-.01-.023.022-.014-.005-.022-.078-.022s-.11.03-.11.088c0 .03.008.051.022.066.146-.029.22 0 .22.089-.074.045-.14.035-.197-.023 0 .074-.023.118-.066.131a2.69 2.69 0 00-.034.584c.007.243.011.4.011.473v1.585c0 .03.004.108.01.232.008.125.013.269.013.43 0 .16.003.326.01.495.007.168.01.312.01.428a.452.452 0 01-.054.2.459.459 0 00-.056.197 1.596 1.596 0 00.045.375.166.166 0 00-.076.132 1.344 1.344 0 00-.012.175v.33c0 .149.014.272.043.375.045.162.085.355.122.583.037.228.055.378.055.451l-.01.538c-.008.333-.019.72-.034 1.167-.014.45-.03.911-.043 1.389-.016.477-.023.89-.023 1.243.016-.015.03-.019.044-.01.015.007.015.025 0 .054a.528.528 0 01-.066.111c-.014.014-.022.028-.022.042a.2.2 0 01.144.056c.035.038.069.055.099.055.102 0 .274.003.516.011.243.008.496.013.76.022l.748.021c.235.007.404.02.507.033.191.015.414.03.672.046.255.013.502.028.736.043a17.081 17.081 0 00.925.044c.043 0 .122.008.232.022.109.013.227.025.351.033.125.006.242.02.354.034.108.014.178.02.208.02.073 0 .265-.006.572-.02a8.09 8.09 0 00.77-.067c-.03 0-.066-.02-.109-.054-.044-.038-.066-.093-.066-.166h4.005c.059-.103.092-.279.1-.53zM89.538 30.813l.067-.153-.067-.022-.087.132.087.043zm.088-.064l-.065-.266h.086l.067.266h-.088zm10.566 10.63h.088v.154h-.088v-.153zm-.066 2.027h.11v-.485h-.11v.485zm-10.103-4.953l.066.065-.044.066-.088-.088.067-.043zm-.155 1.32l.066.021-.066.155-.087-.043.087-.132zm1.85 3.764h-.198v-.088h.198v.088zm4.072.33h-.199v-.088h.199v.089zm.264-.023L95.9 43.8c.06 0 .108-.006.144-.022a.12.12 0 01.099 0c0 .016.003.03.011.044.006.015-.026.022-.099.022zm.353-.022h-.155v-.11h.155v.11zm1.915-.373c0-.06.052-.088.153-.088h1.453c.072 0 .102.01.098.03l.056-.47h-.242c0 .059-.003.114-.01.164a.592.592 0 01-.056.165h-9.598a17.127 17.127 0 01-.131-1.628 10.92 10.92 0 01.021-1.255c0-.16.008-.272.023-.33a3.033 3.033 0 01-.023-.65 5.04 5.04 0 000-.67l-.088-.044a8.489 8.489 0 000 .847c.015.286-.014.488-.087.605.117-.015.138.029.066.132l-.155.22c.045 0 .074-.008.09-.023.014 0 .027-.005.042-.02a1.31 1.31 0 00-.01.307l.022.352c.006.118.004.23-.012.341a.705.705 0 01-.067.21h.024c.043.175.043.343 0 .507-.044-.016-.065-.045-.065-.089v1.344c.028 0 .039-.02.031-.057-.007-.036.004-.069.034-.099.028.03.028.056 0 .077-.03.022-.008.034.066.034.072 0 .11-.012.11-.034 0-.021.035-.032.11-.032.058 0 .113.018.165.054a.281.281 0 00.165.057c.44-.03.861-.038 1.266-.024.403.016.803.024 1.2.024.22 0 .451.01.693.032.242.02.4.033.473.033.058 0 .184-.018.374-.055.19-.037.322-.055.396-.055.074 0 .107.014.099.045-.007.029.004.043.033.043-.058-.06-.065-.11-.022-.154a.15.15 0 01.045.11c0 .044.036.066.11.066.028 0 .099-.004.208-.013a34.073 34.073 0 00.684-.042c.109-.008.179-.01.208-.01.073 0 .11-.008.11-.024 0-.014.037-.021.11-.021.072 0 .111.018.111.055 0 .037.035.055.109.055h.726c.074 0 .1-.018.078-.055-.022-.037.003-.055.077-.055.073 0 .176.007.308.021.132.016.25.007.353-.021.029.028.04.051.033.066-.008.015.003.022.033.022zm2.156.109h-1.145c.25-.072.581-.087.99-.042.016-.03.031-.15.046-.365.014-.213.029-.438.043-.682.013-.204.018-.39.019-.568l.015.414c.006.242.017.44.032.593.015.155.022.281.022.377 0 .094-.007.186-.022.273zm.316 16.918c.008-.24.005-.499-.011-.77a19.367 19.367 0 00-.053-.779 7.255 7.255 0 01-.031-.568c-.044.03-.072.042-.086.042h-.129a.724.724 0 01-.32-.085v-1.133h-4.236a3.88 3.88 0 01-.223-.01c-.122-.007-.257-.016-.407-.021-.15-.008-.303-.02-.46-.033a9.13 9.13 0 01-.386-.042 25.2 25.2 0 00.162-.877c.05-.3.081-.569.096-.813.028-.072.07-.106.128-.106a.403.403 0 00-.203-.097.49.49 0 01-.183-.053h4.642c0-.286-.007-.472-.021-.557-.014-.086-.007-.142.02-.17.03 0 .037.007.023.022-.014.013.014.019.085.019.071 0 .15-.038.235-.116.086-.079.164-.175.236-.29.07-.114.127-.231.17-.353a.954.954 0 00.065-.31c0-.07-.014-.124-.044-.16a.227.227 0 01-.042-.138 1.2 1.2 0 01-.01-.428c.02-.143.031-.272.031-.386 0 .158-.028.3-.085.428h-.599a.779.779 0 01-.052-.235 2.566 2.566 0 01-.012-.257H94.41v-1.84h5.753v-2.97h-9.538c-.072.099-.182.146-.332.139a1.061 1.061 0 01-.332-.054.25.25 0 00.064-.118c.014-.05.007-.089-.022-.118h-.191c0 .044.034.087.107.13a.893.893 0 00-.129.277c-.015.07-.022.159-.022.257l-.043.086a7.738 7.738 0 01-.074-.322 1.355 1.355 0 01-.031-.277 2.354 2.354 0 00-.032.93c.048.306.08.588.096.845 0-.186.035-.4.106-.641.028.027.043.048.043.063v.042c0-.07.013-.126.042-.17.1.113.143.218.128.31a.78.78 0 01-.064.224.21.21 0 01-.106-.192c0 .057-.008.12-.021.193-.009.042-.01.076-.014.114a.13.13 0 01.035-.051c.042.114.057.201.042.258-.03 0-.03-.007-.01-.023.022-.014-.003-.02-.075-.02-.071 0-.106.029-.106.084 0 .03.007.05.02.066.142-.03.215 0 .215.085-.073.04-.137.035-.194-.022 0 .073-.02.114-.064.129a2.592 2.592 0 00-.03.566c.005.236.01.389.01.46v1.54c0 .029.003.103.01.226.006.12.01.259.01.415 0 .158.004.318.01.482.008.164.013.304.013.417a.45.45 0 01-.054.192.43.43 0 00-.053.194 1.325 1.325 0 00.043.362.17.17 0 00-.076.129c-.008.056-.01.114-.01.17v.322c0 .142.013.264.043.363a6.225 6.225 0 01.17 1.006l-.01.523c-.007.321-.018.7-.033 1.134l-.043 1.348a40.49 40.49 0 00-.02 1.209c.013-.016.027-.018.043-.013.012.008.012.025 0 .055a.574.574 0 01-.064.106c-.016.015-.023.028-.023.044.057 0 .103.018.14.053.035.035.068.053.096.053.1 0 .268.003.502.01l.737.022c.258.006.5.014.729.021.228.006.393.018.491.032.187.015.402.029.653.042l.717.044a24.741 24.741 0 00.897.043c.043 0 .118.007.226.02.106.016.22.025.341.032.121.008.237.019.342.032.107.015.174.023.204.023.07 0 .255-.008.555-.023.3-.013.55-.035.749-.063-.028 0-.065-.019-.107-.052-.043-.038-.065-.09-.065-.162h3.894c.055-.1.088-.27.095-.514zm-10.981-12.06l.063-.151-.063-.021-.087.127.087.045zm.085-.066l-.064-.255h.086l.063.255h-.085zm10.266 10.33h.086v.15h-.086v-.15zm-.065 1.968h.108v-.47h-.108v.47zm-9.816-4.813l.064.065-.042.065-.087-.087.065-.042zm-.15 1.284l.064.022-.064.15-.086-.044.086-.128zm1.797 3.657h-.193v-.084h.193v.084zm3.956.32h-.192v-.084h.192v.084zm.257-.02l-.15-.043a.399.399 0 00.139-.02c.036-.016.067-.016.096 0 0 .013.004.027.011.041.007.015-.024.022-.096.022zm.342-.022h-.15v-.108h.15v.108zm1.862-.362c0-.057.048-.087.149-.087h1.41c.07 0 .1.01.095.03l.056-.457h-.236a.99.99 0 01-.01.159.535.535 0 01-.054.162h-9.324a16.143 16.143 0 01-.128-1.583c-.015-.485-.008-.892.022-1.22 0-.156.006-.263.02-.32a2.775 2.775 0 01-.02-.631c.013-.25.013-.467 0-.652l-.087-.043a8.015 8.015 0 000 .824c.015.278-.014.474-.086.588.115-.015.136.028.065.127-.072.101-.12.172-.15.215.043 0 .071-.008.085-.021.014 0 .03-.009.043-.022a1.44 1.44 0 00-.01.3l.02.34c.009.115.005.225-.01.334a.677.677 0 01-.065.204v-.001h.022a.97.97 0 010 .492c-.042-.015-.064-.043-.064-.087v1.305c.028 0 .04-.018.032-.053a.102.102 0 01.032-.096c.03.027.03.053 0 .074-.028.022-.007.032.065.032.07 0 .108-.01.108-.032 0-.02.034-.033.106-.033a.27.27 0 01.16.055c.05.035.104.053.16.053.429-.028.838-.035 1.23-.022.392.015.78.022 1.166.022.214 0 .439.01.674.032.235.021.388.033.459.033.056 0 .177-.02.364-.055.185-.035.313-.053.385-.053.07 0 .103.015.096.043-.007.028.003.044.032.044-.057-.057-.064-.107-.022-.152.029.03.043.065.043.108 0 .044.036.065.107.065a68.213 68.213 0 01.866-.055c.107-.005.175-.01.204-.01.071 0 .107-.007.107-.022 0-.013.035-.02.106-.02s.107.017.107.052c0 .036.037.055.108.055h.705c.072 0 .097-.02.075-.055-.021-.035.004-.053.075-.053.07 0 .17.008.299.021.13.015.242.009.342-.02.03.029.039.05.033.065-.007.012.004.02.033.02zm2.094.105H99.33c.241-.07.563-.084.962-.042.013-.027.028-.146.043-.353.015-.206.027-.428.043-.663.012-.202.016-.385.017-.56l.014.41c.007.236.019.427.032.577.013.151.022.27.022.365 0 .092-.009.182-.022.266z" fill="#FFEA00"/><path fill-rule="evenodd" clip-rule="evenodd" d="M98.797 50.587l.608-.075-.998-.038h-3.711l-.165.05-.053.176-.002.142h.237V50.7h2.95l.138-.024.86-.03-1.723-.023v-.035h1.859zm-4.321.727h.071v-.263h-.071v.263zM29.264 12.489c-.198.22-.34.552-.471.88.016.007.028.01.041.013.029.316-.332 1.463-.332 1.106 0-.358-.438.056-.555.171-.145.143-.538.282-.538.282s-.342.462-.503.703c-.1.158-.67 1.104-.809 1.205-1.205 1.767-1.529 2.89-2.553 3.302.817.729 4.36-1.63 4.457-1.452.956-1.217 1.637-1.354 3.656-1.428.15-.172.314-.329.495-.47.088-.23.162-.466.369-.595.235-.152.51-.191.78-.262.363-.094.605-.214.935-.35.3-.123.623-.193.914-.322.142-.065.304-.073.468-.065a.467.467 0 00.058-.023c1.338-.609 4.414-1.11 4.743-2.416.288-.819.1-1.562-.372-2.184-.52-.17-.946-.53-1.366-.849-.142-.102-.381-.238-.455-.396-.017-.041-.017-.086-.023-.13-1.66-.754-3.78-.913-4.866-.18l-1.773 1.114c-.349 1.057-1.916 1.996-2.3 2.346zm8.083-2.745a.486.486 0 00.243-.055v.017c.154-.067.374.11.493.202-.255.015-.581-.076-.794.067 0-.08.041-.152.058-.231zm-18.821-.907c.123-.196.369-.298.488-.393.069.086.135.193.188.319.012 0 1.005 3.225 1.062 3.573-.086-.138-.165.205-.226.059.152.656.292.825.557 1.48.681.017 1.046 1.001.85 2.665l.007.03c-.05-.088-.103-.177-.16-.271a5.474 5.474 0 00.258.588c.385 1.114 1.41 3.054 1.473 2.614.07-.49 1.765-2.719 2.79-4.663-.31-.482-.198-1.275.822-1.246 0-1.127 1.336-2.082 1.726-1.89 1.337-1.088 2.596-4.558 3.107-4.106.48-.2.604-1.383.727-1.778-1.238-.519-2.616-1.1-4.043-1.557-.082 0-.168 0-.25.004-.291.013-3.16.984-4.198.193-1.87-.206-3.707.034-5.297 1.12h-.238c.238 1.088-.123 2.175.357 3.259zm1.668 1.29c-.053-.06-.213-.173-.225-.243-.013-.064.081-.138.09-.18l.02-.03c.189-.073.189.21.217.29-.056.037-.078.107-.102.163zm.463-3.14c-.008-.241-.18-.264-.417-.308l-.017.014c-.045.024.123.1.086.19-.197-.01-.057.25-.03.353.12.02.125.065.223.02.093-.043.155-.19.155-.27zm-1.582-1.124c.003-.014.037-.037.074-.06.164-.114.266-.314.533-.257.176.036.233.236.43.222-.14.155.193.348.246.548-.217-.274-.79-.486-.918-.02-.107.36.201.607.262.937-.14-.147-.259-.313-.39-.463-.151-.167-.234-.207-.18-.401.045-.18.041-.236-.009-.37-.016-.047-.089-.036-.048-.136zm-.811 12.847c.02-.009.03-.015.05-.016.003-.006.003-.01.006-.01.397-.31 1.06-.69 1.397-.29.12.146.781 1.158.788 1.158a10.07 10.07 0 002.236.851s-1.039-1.112-1.106-1.574c-.302-.03-.643-1.054-.231-1.294-.053-.117-1.177-1.966-1.687-3.505a27.834 27.834 0 00-2.043-2.771c-.094.002-1.09-.154-1.293-.139-.224.014-.267.02-.444-.125-.163-.14-.45-.305-.556-.494-.073-.136.045-.26.124-.4.093-.177.483-.395.532-.44-.59-.838-1.516-1.73-2.371-1.576-.346-.062-2.039.55-3.074.885.781 1.41-1.293 2.164-2.835 1.377-.055.039-.781 1.002-.962 1.15-.124.411 2.813 3.248 3.357 3.401.248-.182 1.22-.559 1.432-.524.261.039.35.013.59-.1.336-.156 1.488-.055 1.478-.038.067.129.07 1.033-.074 1.182-.126.137-.57.492-.581.545-.19.032-.374.142-.552.272 1.717.605 5.424 1.73 5.819 2.476zm-7.93-4.663c.02.025.035.055.052.086.039-.051.126-.077.104-.155 0 0 0-.007.006-.008-.007-.008-.007-.017-.01-.026-.067.001-.076.086-.152.103zm.62.102c-.192-.081-.37.205-.514.272.002-.073.301-.397.38-.443.037.126.187.019.134.171zm1.43-.114a1.62 1.62 0 01.182-.12c.142-.065.191.05.306.084-.058-.014-.434.034-.487.036zm1.909 1.614c-.162.096-.464.032-.68.05.322-.302.367-.868.38-.904.06.114.18.416.273.44.098.02.113-.004.153-.019-.043.143.035.336-.127.433zm7.973 12.258l.525.605.206-.19.03-.051a1.443 1.443 0 00-.163-.077c-.206-.085-.428-.161-.598-.287zm-1.894-4.463c-.31-.363-1.032-.529-1.32-.503-.11-.127-.414-.368-.432-.707-.327-.404-4.344-2.406-4.531-2.39.114.071.562.867.562.867s.537.182.74.38c.14.137.205.428.37.504.025.018.307-.027.307-.027l.731.23s.582.39.747.715c.194.387.295 1.34.303 1.7.622.262 1.288.686 1.813 1.105-.12-.303-.44-1.664.303-1.154.154.105.173.42.311.547.145.143 1.66 1.035 2.204 1.161-.876-.621-1.428-1.644-2.108-2.428zm5.892 11.811l-.766-.618c.26.257.338.305.412.681.075.377-.251.956-.251.956s.499.512.263 2.813c.209-.886.488-1.777.24-2.661-.248-.882.102-1.171.102-1.171zM.715 29.52c-.332.752.532 1.027.835 1.632.001-.236-.01-.662-.088-.895-.09-.267-.37-.364-.203-.704l-.544-.033zm45.203 2.748a7.384 7.384 0 01-.071.425c-.043.226-.126.68-.126.68l-.103.517s.13.081.206.181c.041.054.038.226.038.226s.192.775.266.923c-.002-.112-.033-.347-.033-.347l-.004-.609s-.065-.175-.08-.287c-.008-.052.03-.072.008-.137a.53.53 0 00-.098-.118l-.021-.757s-.01-.507.035-.662l-.017-.035z" fill="#FFEA00"/><path fill-rule="evenodd" clip-rule="evenodd" d="M16.522 22.202s-.353-.314-.453-.362c-.15-.07-.405-.07-.57-.063.253.084.474.591.474.591s-.012.272.167.429c.188.165.39.331.567.494-.05-.152-.11-.331-.14-.494-.03-.163-.045-.595-.045-.595zm-9.834-7.818s-.514.056-.523.076h-.024c.601.14 1.639.526 1.639.526l.454-.621-1.048.114-.498-.095z" fill="#FFEA00"/><path fill-rule="evenodd" clip-rule="evenodd" d="M48.285 11.67c.27-.573.713-1.44.668-1.482-1.155-1.046-2.456-2.04-4.002-2.418-.816-.202-4.7-1.119-5.544-2.116a2.885 2.885 0 00-.561-.06c-.258 0-.489.016-.743.068-.125.025-.275.085-.4.085-.142 0-.177-.044-.294-.137-.283-.227-.638-.238-.953-.4-.121-.064-.242-.21-.372-.25-.073-.025-.137-.004-.218-.004-.376-.009-.76-.25-1.11-.369-.594-.197-1.196-.355-1.785-.572a1.547 1.547 0 01-.432-.274l-.17-.037c-2.047-.42-4.93-.387-5.568-2.855C26.794.819 24.59 0 24.59 0l-2.922.825-.95.949s-.298.469-.484.674c-.266.298-.618.48-.941.703-.262.178-.54.384-.823.53-.364.184-.8.265-1.195.365l-.162.04s-.004.005-.007.005a45.694 45.694 0 01-4.572 1.584c-.484.137-1.905.488-1.905.488L8.146 7.718s-.848.213-1.2.395C5.66 8.78 4.659 9.632 3.177 9.95c-.848.185-1.565.56-2.235 1.129H.94v.002l.419 2.566.468.818.143 1.389-.217 1.142-.02.573-.94 1.347-.044.787s-.065.847-.27 1.272c.445 1.201 1.521 3.699 1.7 4.569.895 1.176.088 3.844-.718 4.38.447 1.433 1.006 3.28-.804 5.279.564 1.848-.892 2.824-.624 2.95 2.96.48 3.058.13 3.488-.177.197-.14.556-.183 1.012-.169h.017c.436-.043.895-.008 1.328-.043.009-.015.24.062.553.179h.003c.308-.037.604-.053.85-.06.484-.017.923.36 1.396.555-.29-.008-.59.013-.886.03.304.128.525.232.532.259a5.792 5.792 0 011.409 1.263c.096.01.196.02.273.057.596.285 2.218 3.083 2.645 3.506.61.206 3.993 2.146 4.446 2.58.365-.365.608.583.664.64 1.194.676 2.291 1.337 3.047 1.935l.005.003c.186.24 1.719 1.22 2.021 1.517 0-.002 0-.003.002-.003l.002-.003c1.037-1.644 5.449-2.404 5.449-2.404l1.579-1.53.359-.241.028-.046c.12-.204.166-.47.311-.658.143-.188.357-.33.498-.516.157-.205.28-.454.462-.636-.04.132-.14.237-.199.363-.08.174-.128.362-.23.522-.075.12-.229.222-.269.356-.017.06-.008.143-.003.217l.67-.448V45.2l.037-.024 2.753-1.838 3.3-.778s1.853-1.45 5.197-3.244c-1.525-.623 2.95-2.325 3.93-2.414-.177-.719-1.317-2.343-1.317-2.343l1.5-8.031s-.536-2.145-.536-3.133c0-.63 1.744-3.745 1.744-3.745s-.132-2.84.134-5.015c-.131-.66.204-2.319.048-2.964zM2.381 20.75s-.092-.056-.136.073c-.045.13-.122.872-.118.976.004.08-.016.167-.006.245 0-.494-.098-1.798-.126-1.937-.014-.07-.057-.154-.057-.224a.06.06 0 01-.007-.008l.007.007v.001c.054.066.17.213.17.213s.3.434.463.46a.227.227 0 00-.19.193zm-.426-.944c.309-.305-.166-.642-1.093-.874 0 0 .42-.614.64-.672.162 0 .387-.712.387-.712l.077.266s-.125.454-.024.72c.065.163.584.295.615.343.076.122-.088.257-.005.395.072.117.313.235.43.321a3.136 3.136 0 001.133 1.003s-.445-.047-.036.362c.41.41 3.344 2.534 4.502 2.094.277-.168-.005-.204-.035-.273.477.173.873.587 1.774.625-.017.042-.336.14-.144.14-.04.098 1.137.78 1.795 1.141.392.217.828.56 1.268.819l.039.014c.255.088.491.13.707.3-.245-.05-.496-.17-.746-.315-1.277-.45-3.362-1.576-3.834-1.41.227-.661-1.544-.716-1.862-.894-1.196-.667-2.403-1.293-3.612-1.934-.342-.18-1.868-1.468-1.976-1.46zM7.5 15.902s-.05 1.098.022 1.589c-.236-.499-.55-1.283-.945-1.674-.084-.083-.287-.14-.287-.14s.001-.297-.042-.422c-.053-.157-.177-.314-.278-.472-.038-.032-.078-.063-.114-.097l.036-.035c.022.044.05.088.078.132.139.12.288.234.456.321.298.159.748.108.748.108s.741.561 1.13.795c-.276-.01-.804-.105-.804-.105zm.866 6.345c.32.09.876.226 1.003.146.504.22.388.34.619.494.23.151 1.725.856 1.725.856s-1.118-.44-1.299-.37c-.028-.08-.769-.127-.896-.355-.287-.365-.817-.647-1.152-.77a12.898 12.898 0 01-.233-.068 1.3 1.3 0 01.233.067zM3.189 30.94s-.204-.01-.299 0c.014-.073.198-.072.066-.203-.132-.132-.485-.58-1.253-.774.978-1.422.897-2.549.947-3.08l.195 1.111s1.354 2.485 1.96 2.595c.071.21.436.317 1.123.542.488.16 1.045.395 1.619.585.24.057.477.12.701.204a8.263 8.263 0 01-.701-.204 10.876 10.876 0 00-.456-.1c-.65-.126-3.325-.815-3.325-.815l-.577.14zm12.707 11.155c-.01.06-.112.05-.121.117-.02.139.032.25.157.31-.077.37-.05.785-.09 1.17-.04.386-.067.019-.113-.464-.048-.519-.092-1.081-.229-1.57-.02-.041-.043-.082-.059-.124.3.029.622.242.897.371a1.841 1.841 0 00-.487-.045c-.011.085.056.17.045.235zm6.57 2.738s-1.576-2.105-7.002-3.418c.282-.028-.096-.547-.096-.547s-.278-.494-1.459-.8c.972-.683-1.857-1.865-1.857-1.865s-2.24-1.86-2.344-2.007c-.152-.217-4.337-1.035-5.489-.988 1-.058 4.647.11 4.647.11l1.061.365 1.357 1.025 1.195.52 1.243.704.545-.337s-.327.92.39 1.07l1.024.216 2.1.959 1.684.184s1.108.715 1.663.87c1.567 1.167 3.242.192 3.242.192s-1.23 2.733-1.699 2.514c-.527.584-.205 1.233-.205 1.233zm-3.408-5.388c.28-.416.143-.912.188-1.063.036.234.132 1.046.189 1.115.046.057.217.088.291.142.164.113.25.188.855.468.274.483.675.483.991.733-.411-.21-.872-.38-1.252-.633-.124-.082-.521-.518-1.132-.45-.613.067-1.575-.26-1.575-.26s1.845.086 1.445-.052zm4 5.247c.332-.3 3.584-5.59 3.467-6.189l.244-.437-.361-1.437c.031-.17.296-.969.088-1.28-.194-.291-1.094-.963-1.231-.928l-.015-3.062-.224-.262c.012-.356-.017-.727-.098-.917-.338-.265-1.442-1.666-1.9-1.911l.696-3.164c2.28-.57 2.461-2.337 2.726-2.695.066-.08.496-.38.573-.427.006-.004.009-.004.015-.01.273-.116.673-.173.9-.205.166.177.547-.35.678-.476.294-.282 1.707-1.433 2.298-1.373.57.057 2.796-.411 2.796-.411l1.39-1.918s1.283-.454 1.768-.935c.142-.136.285-.253.424-.36l2.688-.403 3.409-2.138s.86.182 1.24-.04c.228-.13-.089 1.648-.137 2.055.228-.2.372-.501.58-.716.215-.213.747-2.018.7-2.1.062-.05.49-.498.635-.644l1.02-.45c.014-.019.032-.035.046-.05.003-.002.003-.002.003-.005h.001c.53-1.309.422-1.878-1.048-2.725-1.329-.767-7.656-2.547-7.717-2.572-.722-.247-2.16-.828-2.16-.828-.181-.117-.343-.279-.532-.372-.07-.031-.26-.04-.47-.031-1.194-.481-2.402-.925-3.657-1.147-.767-.133-1.583-.218-2.37-.384a1.772 1.772 0 00-.247-.165c-.004-.004-.012-.004-.02-.009a1.941 1.941 0 00-.266-.12c-.005 0-.005 0-.009-.005a3.263 3.263 0 00-.294-.072 1.783 1.783 0 00-.202-.025 2.186 2.186 0 00-.154-.112c-.194-.126-.424-.201-.61-.328-.165-.109-.31-.29-.452-.428C27 2.223 24.06.865 24.06.865s-2.81 1.781-4.643 2.674a37.993 37.993 0 01-5.483 2.148c-.76.23-2.355.645-2.355.645L10.29 7.418s-.977.433-1.522.566c-.041.008-.08.02-.118.032-.367-.032-.98.057-.98.057s-.784.457-1.175.72c-.34.225-.703.387-1.034.6-.275.177-.557.351-.836.529-.988.246-2.138.287-3.683 1.158v.001c.114.083 2.565 1.83 3.491 2.001.126.126 1.525 1.414 1.525 1.414s.744.205 1.226.313c.527.126 2.57 2.021 2.57 2.021s3.417 2.443 3.514 3.522c.177.54.548 2.49.904 2.789.582-.126 1.334 1.062 1.51 1.151.177 0 5.382 2 5.382 2l2.128 4.259s-.738 1.904.82 3.015c.7 1.753 1.07 4.27 1.07 4.27l-.582 3.498s-1.092 1.865-1.106 2.155c-1.031.518-.635 1.285-.626 1.346.063.4.262.85.327 1.252.052.305.223.638.231.94.006.188-.08 1.368-.265 2.34v.006-.005c.2-.411.47-.799.58-1.29.176-1.162-.625-3.308-.625-3.308l.043-.076v-.003zM36.75 25.515c-.25.076-.56.134-.56-.402 0-.537 2.677-1.36 3.213-1.676 0 0-2.74 1-4.517 1.607-1.778.605-5.05 1.264-5.05 1.264s1.155-.212 1.706-.302c.865-.143 2.78-.343 3.053-.007 1.33-.009 1.882-.35 2.155-.483zm-3.2 5.401c.015-.003-.007.014-.023.028l.047-.072c-.11.077-.143.174-.208.286-.1.172-.073.136-.243.237-.17.102-.171.096-.267.308-.072.156-.18.32-.228.474.132-.102.204-.243.351-.332.15-.091.39-.229.567-.288.012-.211.005-.428.005-.64zm-3.795 6.021c-.654.344-1.693.67-1.21.73-.451.022-1.159.224-1.052.432-.462-.156-.621-.055-.621-.055s-.272-1.218-.318-1.418c.107.107-.004.392.37.458.373.236 1.253.036 1.253.036s.837.338 1.94-.58c.346.145 1.364-.01 1.522.044-.4.05-1.416.107-1.884.353zm7.52-3.288c.007-.112.03-.217.025-.327-.164-.01-.361-.002-.496-.05.323.325-.157.229-.376.24-.013.152.297.238.353.424.07.235.032.512.052.758.145-.287.121-.885.443-1.045zm4.173-3.598l-1.818.801s-1.064.287-1.486.797c-.523.634-2.04.743-.817 1.564-.68 0-1.236-.51-3.084.008-1.188.333-1.602.918-1.602.918s-.086-.307-1.132-.028c-1.066-.466-2.505-.265-3.813.159-1.309.422-.974.818-.962 1.176-.452-.782-1.358-1.2-1.358-1.2s1.108-.025 1.358-.5c.962.238 1.532-.035 2.576-.035 1.046 0 1.314-.739 1.314-.739h.347s1.49-.26 1.685-.428c.205-.178.524-.586.524-.586l.539-.383s.12-1.641.346-1.959c.044.128-.218 1.435.827 1.775 1.046.339.383-.175.383-.175s.663.345 1.078-.07c.415-.416.605-.714.605-.714l.714-.08s4.943-.713 5.76-.739c-.64.059-1.984.438-1.984.438zm6.494-10.433s-2.004-.43-2.444.224c-1.32.15-2.089.971-2.926 1.901-1.275.067-.588.3-1.128.396l-1.167.215s-.372.034-.577.545c-.734.107-1.637.23-2.162.881-.425.197-4.392 1.416-4.392 1.416s3.716-1.255 3.67-1.745c1.739-1.002 3.18-2.218 3.687-3.623.143.01.665.104.665.104s1.24.162 1.632-.509c.394-.67.732-1.022.732-1.022s.775-.08 1.133-.15c.84-.163 1.503-.506 2.352-1.303.847-.8.792-1.36.95-1.486-.142 1.523-.142 3.673-.025 4.156z" fill="#FFEA00"/><path d="M55.663 22.914c-.101.611-.35 1.08-.75 1.405-.397.326-.883.488-1.455.488-.64 0-1.179-.217-1.614-.652a1.947 1.947 0 01-.247-.298 1.419 1.419 0 01-.166-.35 5.12 5.12 0 01-.1-.347 2.517 2.517 0 01-.053-.412 8.537 8.537 0 01-.02-.419v-.565c0-.604.015-1.02.049-1.248.07-.47.25-.85.537-1.142.435-.435.974-.652 1.614-.652.575 0 1.06.162 1.458.487.396.324.646.791.747 1.402h-1.187a1.206 1.206 0 00-.343-.62c-.165-.153-.388-.23-.667-.23-.317 0-.566.103-.747.312a1.038 1.038 0 00-.232.519c-.04.218-.06.609-.06 1.172 0 .564.02.955.06 1.173.04.218.117.39.232.519.178.206.427.308.747.308.28 0 .502-.076.667-.23.166-.153.28-.36.343-.62h1.187zm2.192 1.845h-1.17v-5.987h1.17v2.841l1.935-2.841h1.396l-2.013 2.808 2.214 3.179h-1.429l-2.103-3.13v3.13zm6.936-2.046l-.735-2.176-.756 2.176h1.491zm1.881 2.045h-1.22L65.1 23.7h-2.13l-.36 1.06h-1.22l2.18-5.988h.916l2.185 5.987zm5.104.001h-1.17v-4.944h-1.43v1.74c0 .502-.025.935-.076 1.3a3.97 3.97 0 01-.22.913 1.604 1.604 0 01-.375.586 1.342 1.342 0 01-.517.312c-.19.062-.415.093-.672.093h-.46v-1.043h.169c.129 0 .24-.018.337-.052a.737.737 0 00.28-.195c.09-.096.163-.224.22-.386a3.13 3.13 0 00.138-.645c.034-.267.052-.585.052-.953v-2.713h3.724v5.987zm4.451-3.105c0-.496-.019-.85-.058-1.062a1.001 1.001 0 00-.234-.511c-.188-.214-.439-.32-.751-.32-.315 0-.566.106-.756.32-.122.134-.201.322-.233.563-.033.24-.05.585-.05 1.035v.303c0 .269.004.474.01.616.007.143.033.298.076.466.045.169.11.297.197.384.211.21.463.316.756.316.315 0 .566-.105.751-.316.12-.14.2-.322.236-.546.038-.224.056-.64.056-1.248zm1.17-.309v.637a9.727 9.727 0 01-.025.77c-.01.153-.028.281-.053.389a3.682 3.682 0 01-.1.35 1.531 1.531 0 01-.169.353c-.07.108-.153.212-.248.31-.42.436-.958.653-1.618.653-.654 0-1.195-.217-1.622-.652a1.824 1.824 0 01-.244-.315 1.638 1.638 0 01-.166-.365 4.453 4.453 0 01-.101-.363 2.483 2.483 0 01-.054-.393 9.137 9.137 0 01-.022-.704v-.493c0-.601.04-1.051.121-1.348.08-.298.236-.564.466-.8.427-.435.968-.652 1.622-.652.651 0 1.19.217 1.618.652.21.214.363.475.456.783.092.308.14.704.14 1.188zm4.16 2.371v-3.901h-1.322v.866c0 .638-.04 1.204-.12 1.7-.079.496-.215.94-.41 1.335h1.852zm1.857 2.373h-1.126v-1.33h-3.322v1.33H77.84v-2.373h.563c.24-.37.42-.851.538-1.443.117-.594.176-1.25.176-1.97v-1.531h3.609v4.944h.687v2.373zm2.101-4.636h1.093c.26 0 .469-.074.628-.222.159-.148.238-.346.238-.595 0-.25-.08-.449-.238-.597-.159-.15-.368-.224-.628-.224h-1.093v1.638zm-1.17-2.682h2.32c.578 0 1.052.175 1.423.524.37.35.557.796.557 1.34 0 .548-.186.997-.555 1.345-.37.35-.845.524-1.425.524h-1.15v2.254h-1.17v-5.987zm8.332 2.883c0-.496-.019-.85-.058-1.062a1.002 1.002 0 00-.234-.511c-.188-.214-.439-.32-.751-.32-.315 0-.566.106-.756.32-.122.134-.2.322-.233.563-.033.24-.05.585-.05 1.035v.303c0 .269.004.474.01.616.007.143.032.298.076.466.045.169.11.297.197.384.21.21.464.316.756.316.316 0 .566-.105.751-.316.122-.14.2-.322.236-.546.038-.224.056-.64.056-1.248zm1.17-.309v.637c0 .167-.001.3-.003.396-.004.098-.01.222-.021.374a2.55 2.55 0 01-.054.389 3.487 3.487 0 01-.1.35 1.507 1.507 0 01-.169.353 1.95 1.95 0 01-.248.31c-.42.436-.958.653-1.618.653-.654 0-1.194-.217-1.622-.652a1.814 1.814 0 01-.244-.315 1.638 1.638 0 01-.166-.365 5.1 5.1 0 01-.101-.363 2.409 2.409 0 01-.053-.393 9.178 9.178 0 01-.022-.704v-.493c0-.601.04-1.051.12-1.348a1.8 1.8 0 01.466-.8c.428-.435.968-.652 1.622-.652.651 0 1.19.217 1.618.652.21.214.363.475.456.783.093.308.14.704.14 1.188zm6.615 3.414h-1.17v-3.49l-1.142 2.27h-.792l-1.15-2.27v3.49h-1.17v-5.987h1.154l1.56 3.235 1.557-3.235h1.153v5.987z" fill="#FFEA00"/></svg>