<svg width="10" height="13" fill="none" xmlns="http://www.w3.org/2000/svg"><g clip-path="url(#clip0_1627_117)"><path d="M4.486 12.74C.702 7.39 0 6.84 0 4.875 0 2.182 2.238 0 5 0s5 2.182 5 4.875c0 1.966-.702 2.513-4.486 7.863A.62.62 0 015 13a.638.638 0 01-.513-.26l-.001-.002v.002z" fill="#E2484D"/><path d="M7.778 4.875c0 1.496-1.244 2.708-2.778 2.708S2.222 6.371 2.222 4.875C2.222 3.38 3.466 2.167 5 2.167s2.778 1.212 2.778 2.708z" fill="#E2484D"/><path fill-rule="evenodd" clip-rule="evenodd" d="M5 6.5c.92 0 1.667-.727 1.667-1.625C6.667 3.978 5.92 3.25 5 3.25s-1.667.728-1.667 1.625C3.333 5.773 4.08 6.5 5 6.5zm0 1.083c1.534 0 2.778-1.212 2.778-2.708C7.778 3.38 6.534 2.167 5 2.167S2.222 3.379 2.222 4.875c0 1.496 1.244 2.708 2.778 2.708z" fill="#fff"/></g><defs><clipPath id="clip0_1627_117"><path fill="#fff" d="M0 0h10v13H0z"/></clipPath></defs></svg>