<svg width="25" height="24" viewBox="0 0 25 24" fill="none" xmlns="http://www.w3.org/2000/svg">
<g clip-path="url(#clip0_12_152)">
<path d="M20.3125 24H4.6875C2.09846 24 0 21.9855 0 19.5V4.5C0 2.01453 2.09846 0 4.6875 0H20.3125C22.9015 0 25 2.01453 25 4.5V19.5C25 21.9855 22.9015 24 20.3125 24Z" fill="#E0FFDD"/>
<path d="M12.5 6C9.05399 6 6.25 8.69183 6.25 12C6.25 15.3082 9.05399 18 12.5 18C15.946 18 18.75 15.3082 18.75 12C18.75 8.69183 15.946 6 12.5 6ZM15.6679 10.7287L12.2828 13.9785C12.1813 14.076 12.0476 14.1248 11.9148 14.1248C11.7813 14.1248 11.6484 14.076 11.5469 13.9785L9.85394 12.3532C9.6508 12.1582 9.6508 11.8418 9.85394 11.6461C10.0571 11.4503 10.3867 11.451 10.5906 11.6461L11.9148 12.9172L14.9321 10.0208C15.1352 9.82581 15.4648 9.82581 15.6687 10.0208C15.8726 10.2158 15.871 10.533 15.6679 10.7287Z" fill="#00BA13"/>
</g>
<defs>
<clipPath id="clip0_12_152">
<rect width="25" height="24" fill="white"/>
</clipPath>
</defs>
</svg>
