<svg width="13" height="12" viewBox="0 0 13 12" fill="none" xmlns="http://www.w3.org/2000/svg">
<path d="M6.5 0C3.05399 0 0.25 2.69183 0.25 6C0.25 9.30817 3.05399 12 6.5 12C9.94601 12 12.75 9.30817 12.75 6C12.75 2.69183 9.94601 0 6.5 0ZM9.66792 4.7287L6.28275 7.97845C6.18128 8.07605 6.04758 8.12476 5.91483 8.12476C5.78131 8.12476 5.64837 8.07605 5.5469 7.97845L3.85394 6.35321C3.6508 6.1582 3.6508 5.8418 3.85394 5.64606C4.05707 5.45032 4.38666 5.45105 4.59055 5.64606L5.91483 6.91718L8.93206 4.02081C9.13519 3.82581 9.46478 3.82581 9.66868 4.02081C9.87257 4.21582 9.87105 4.53296 9.66792 4.7287Z" fill="#00BA13"/>
</svg>
