<svg width="25" height="25" viewBox="0 0 25 25" fill="none" xmlns="http://www.w3.org/2000/svg">
<g clip-path="url(#clip0_2_49)">
<path d="M12.5 25C19.4036 25 25 19.4036 25 12.5C25 5.59644 19.4036 0 12.5 0C5.59644 0 0 5.59644 0 12.5C0 19.4036 5.59644 25 12.5 25Z" fill="#3B5998"/>
<path d="M15.6425 12.9893H13.412V21.1607H10.0327V12.9893H8.42543V10.1176H10.0327V8.25922C10.0327 6.93029 10.6639 4.84933 13.4421 4.84933L15.9453 4.85981V7.64734H14.1291C13.8311 7.64734 13.4122 7.79619 13.4122 8.43012V10.1202H15.9377L15.6425 12.9893Z" fill="white"/>
</g>
<defs>
<clipPath id="clip0_2_49">
<rect width="25" height="25" fill="white"/>
</clipPath>
</defs>
</svg>
