<svg width="95" height="61" viewBox="0 0 95 61" fill="none" xmlns="http://www.w3.org/2000/svg">
<path d="M48.326 3.82481L52.0599 0H0L3.73395 3.82481H9.01175H48.326Z" fill="white"/>
<path d="M39.3968 34.7232H33.8968V9.13696H14.4492L18.1878 12.8743H30.1583V38.4605H43.1353V20.9239L39.3968 17.1866V34.7232Z" fill="white"/>
<path d="M9.09547 3.82483H3.82489L13.0036 12.9619H18.2742L14.5453 9.24996L9.09547 3.82483Z" fill="#3D6E97"/>
<path d="M43.5603 8.43059L46.1591 11.0495L57.1596 0H51.9264L48.2239 3.73099L43.5603 8.43059Z" fill="#E2484D"/>
<path d="M79.471 3.82483H74.231L63.1093 14.8456L65.7471 17.4242L68.3493 14.8456L79.471 3.82483Z" fill="#3F6D9B"/>
<path d="M39.3105 11.8994V17.1757L43.0435 20.9086L60.5954 38.4605H65.8717L62.1388 34.7276L39.3105 11.8994Z" fill="#A8D0DB"/>
<path d="M92.0079 38.4606L68.4853 14.8743L65.8717 17.495L86.7448 38.4606H92.0079Z" fill="#A8D0DB"/>
<path d="M83.2959 0H65.0589L50.1475 14.9111L69.9221 34.7328H62.1625L65.8814 38.4606H78.8975L55.4041 14.9111L66.5965 3.72778H74.3204H79.577L83.2959 0Z" fill="white"/>
<path d="M35.877 52.9326H31.9395V57H29.8887V47.0469H36.3691V48.708H31.9395V51.2783H35.877V52.9326ZM41.3493 57H39.2985V47.0469H41.3493V57ZM52.1536 48.708H49.1048V57H47.054V48.708H44.0462V47.0469H52.1536V48.708ZM63.0331 57H60.9823L56.9902 50.4512V57H54.9394V47.0469H56.9902L60.9892 53.6094V47.0469H63.0331V57ZM72.4224 52.6865H68.4849V55.3525H73.106V57H66.4341V47.0469H73.0923V48.708H68.4849V51.0801H72.4224V52.6865ZM81.0803 54.3887C81.0803 54.0013 80.9436 53.7051 80.6701 53.5C80.3967 53.2904 79.9045 53.0716 79.1936 52.8438C78.4826 52.6113 77.9198 52.3835 77.5051 52.1602C76.3749 51.5495 75.8098 50.7269 75.8098 49.6924C75.8098 49.1546 75.9602 48.6761 76.2609 48.2568C76.5663 47.833 77.0015 47.5026 77.5666 47.2656C78.1363 47.0286 78.7743 46.9102 79.4807 46.9102C80.1916 46.9102 80.8251 47.04 81.3811 47.2998C81.937 47.555 82.3677 47.9173 82.673 48.3867C82.9829 48.8561 83.1379 49.3893 83.1379 49.9863H81.0871C81.0871 49.5306 80.9436 49.1774 80.6564 48.9268C80.3693 48.6715 79.966 48.5439 79.4465 48.5439C78.9452 48.5439 78.5555 48.651 78.2775 48.8652C77.9995 49.0749 77.8605 49.3529 77.8605 49.6992C77.8605 50.0228 78.0223 50.2939 78.3459 50.5127C78.674 50.7314 79.1548 50.9365 79.7883 51.1279C80.9549 51.4788 81.8049 51.9141 82.3381 52.4336C82.8713 52.9531 83.1379 53.6003 83.1379 54.375C83.1379 55.2363 82.812 55.9131 82.1604 56.4053C81.5087 56.8929 80.6314 57.1367 79.5285 57.1367C78.7629 57.1367 78.0656 56.9977 77.4367 56.7197C76.8078 56.4372 76.327 56.0521 75.9943 55.5645C75.6662 55.0768 75.5021 54.5117 75.5021 53.8691H77.5598C77.5598 54.9674 78.216 55.5166 79.5285 55.5166C80.0161 55.5166 80.3967 55.4186 80.6701 55.2227C80.9436 55.0221 81.0803 54.7441 81.0803 54.3887ZM91.3036 54.3887C91.3036 54.0013 91.1668 53.7051 90.8934 53.5C90.62 53.2904 90.1278 53.0716 89.4168 52.8438C88.7059 52.6113 88.1431 52.3835 87.7284 52.1602C86.5982 51.5495 86.033 50.7269 86.033 49.6924C86.033 49.1546 86.1834 48.6761 86.4842 48.2568C86.7896 47.833 87.2248 47.5026 87.7899 47.2656C88.3595 47.0286 88.9976 46.9102 89.7039 46.9102C90.4149 46.9102 91.0483 47.04 91.6043 47.2998C92.1603 47.555 92.591 47.9173 92.8963 48.3867C93.2062 48.8561 93.3612 49.3893 93.3612 49.9863H91.3104C91.3104 49.5306 91.1668 49.1774 90.8797 48.9268C90.5926 48.6715 90.1893 48.5439 89.6698 48.5439C89.1685 48.5439 88.7788 48.651 88.5008 48.8652C88.2228 49.0749 88.0838 49.3529 88.0838 49.6992C88.0838 50.0228 88.2456 50.2939 88.5692 50.5127C88.8973 50.7314 89.3781 50.9365 90.0116 51.1279C91.1782 51.4788 92.0282 51.9141 92.5614 52.4336C93.0946 52.9531 93.3612 53.6003 93.3612 54.375C93.3612 55.2363 93.0353 55.9131 92.3836 56.4053C91.7319 56.8929 90.8547 57.1367 89.7518 57.1367C88.9862 57.1367 88.2889 56.9977 87.66 56.7197C87.0311 56.4372 86.5503 56.0521 86.2176 55.5645C85.8895 55.0768 85.7254 54.5117 85.7254 53.8691H87.783C87.783 54.9674 88.4393 55.5166 89.7518 55.5166C90.2394 55.5166 90.62 55.4186 90.8934 55.2227C91.1668 55.0221 91.3036 54.7441 91.3036 54.3887Z" fill="white"/>
</svg>
