<svg width="10" height="13" viewBox="0 0 10 13" fill="none" xmlns="http://www.w3.org/2000/svg">
<g clip-path="url(#clip0_1627_117)">
<path d="M4.48611 12.74C0.702222 7.38942 0 6.84071 0 4.875C0 2.18237 2.23833 0 5 0C7.76167 0 10 2.18237 10 4.875C10 6.84071 9.29778 7.38833 5.51389 12.7378C5.45643 12.8185 5.37982 12.8845 5.2906 12.9301C5.20137 12.9757 5.10216 12.9997 5.00141 12.9999C4.90066 13.0001 4.80135 12.9766 4.71192 12.9313C4.62249 12.8861 4.5456 12.8204 4.48778 12.74L4.48667 12.7378L4.48611 12.74Z" fill="#E2484D"/>
<path d="M7.77778 4.87508C7.77778 6.37085 6.53413 7.58341 5.00001 7.58341C3.46588 7.58341 2.22223 6.37085 2.22223 4.87508C2.22223 3.37931 3.46588 2.16675 5.00001 2.16675C6.53413 2.16675 7.77778 3.37931 7.77778 4.87508Z" fill="#E2484D"/>
<path fill-rule="evenodd" clip-rule="evenodd" d="M5.00001 6.50008C5.92048 6.50008 6.66667 5.77254 6.66667 4.87508C6.66667 3.97762 5.92048 3.25008 5.00001 3.25008C4.07953 3.25008 3.33334 3.97762 3.33334 4.87508C3.33334 5.77254 4.07953 6.50008 5.00001 6.50008ZM5.00001 7.58341C6.53413 7.58341 7.77778 6.37085 7.77778 4.87508C7.77778 3.37931 6.53413 2.16675 5.00001 2.16675C3.46588 2.16675 2.22223 3.37931 2.22223 4.87508C2.22223 6.37085 3.46588 7.58341 5.00001 7.58341Z" fill="white"/>
</g>
<defs>
<clipPath id="clip0_1627_117">
<rect width="10" height="13" fill="white"/>
</clipPath>
</defs>
</svg>
