<svg width="28" height="26" viewBox="0 0 28 26" fill="none" xmlns="http://www.w3.org/2000/svg">
<g clip-path="url(#clip0_10_3)" filter="url(#filter0_d_10_3)">
<path d="M19.2078 21.75H6.29164C5.02749 21.75 3.99999 20.7225 3.99999 19.4584V6.5422C3.99999 5.27804 5.02749 4.25055 6.29164 4.25055H16.7079C17.0529 4.25055 17.3329 4.53054 17.3329 4.87553C17.3329 5.22052 17.0529 5.50051 16.7079 5.50051H6.29164C5.71747 5.50051 5.24995 5.96803 5.24995 6.5422V19.4584C5.24995 20.0325 5.71747 20.5 6.29164 20.5H19.2078C19.782 20.5 20.2495 20.0325 20.2495 19.4584V12.3753C20.2495 12.0303 20.5295 11.7503 20.8745 11.7503C21.2195 11.7503 21.4994 12.0303 21.4994 12.3753V19.4584C21.4994 20.7225 20.472 21.75 19.2078 21.75Z" fill="#E2484D"/>
<path d="M14.208 14.667C14.0481 14.667 13.888 14.6061 13.7664 14.4836L10.0165 10.7337C9.77237 10.4896 9.77237 10.0938 10.0165 9.84964C10.2606 9.60551 10.6564 9.60551 10.9006 9.84964L14.2089 13.1578L22.9327 4.43401C23.1769 4.18972 23.5727 4.18972 23.8169 4.43401C24.061 4.67814 24.061 5.07394 23.8169 5.31807L14.6505 14.4845C14.5279 14.6061 14.368 14.667 14.208 14.667Z" fill="#E2484D"/>
</g>
<defs>
<filter id="filter0_d_10_3" x="0" y="-1" width="28" height="28" filterUnits="userSpaceOnUse" color-interpolation-filters="sRGB">
<feFlood flood-opacity="0" result="BackgroundImageFix"/>
<feColorMatrix in="SourceAlpha" type="matrix" values="0 0 0 0 0 0 0 0 0 0 0 0 0 0 0 0 0 0 127 0" result="hardAlpha"/>
<feOffset/>
<feGaussianBlur stdDeviation="2"/>
<feColorMatrix type="matrix" values="0 0 0 0 0.886275 0 0 0 0 0.282353 0 0 0 0 0.301961 0 0 0 0.3 0"/>
<feBlend mode="normal" in2="BackgroundImageFix" result="effect1_dropShadow_10_3"/>
<feBlend mode="normal" in="SourceGraphic" in2="effect1_dropShadow_10_3" result="shape"/>
</filter>
<clipPath id="clip0_10_3">
<rect width="20" height="20" fill="white" transform="translate(4 3)"/>
</clipPath>
</defs>
</svg>
