<svg  version="1.1"  xmlns="http://www.w3.org/2000/svg" xmlns:xlink="http://www.w3.org/1999/xlink" x="0px" y="0px" viewBox="0 0 85 50" style="enable-background:new 0 0 85 50;" xml:space="preserve">                                    
                        <g clip-path="url(#a)" fill="#F5E400">
<path d="M25.2 0.0999756H18.3C15.6 0.0999756 13.2 1.79998 12.4 4.39998L5.89999 23.5H17.3L25.2 0.0999756Z"></path>
<path d="M49.3 0.0999756H37.9L29.9 23.6H36.8C39.5 23.6 41.9 21.9 42.7 19.3L49.3 0.0999756Z"></path>
<path d="M77.3 15.6C77.3 13.7 76.2 12 74.4 11.2L57.6 4.2C55.3 3.2 55.8 0.5 57.3 0C52.4 0 49.1 2.9 48.4 6.3C48.3 6.6 48.3 6.9 48.3 7.3C48.3 7.4 48.3 7.6 48.3 7.7C48.3 7.8 48.3 7.9 48.4 8C48.6 9.6 49.6 11.1 51.3 11.8L67.4 18.5C67.5 18.5 67.5 18.6 67.7 18.6C70.9 20 70.2 23.5 68.5 23.5C74.1 23.5 77.6 19.8 77.6 15.8C77.3 15.8 77.3 15.7 77.3 15.6Z"></path>
<path d="M33.5 12.1L25.4 0.400024L25.1 1.20002L33.2 13L33.5 12.1Z"></path>
<path d="M33 13.6L24.9 1.79999L24.6 2.59999L32.7 14.4L33 13.6Z"></path>
<path d="M32.5 15.1L24.4 3.29999L24.1 4.09999L32.2 15.9L32.5 15.1Z"></path>
<path d="M32 16.6L23.9 4.70001L23.6 5.50001L31.7 17.3L32 16.6Z"></path>
<path d="M31.5 18L23.4 6.20001L23.2 7.00001L31.3 18.8L31.5 18Z"></path>
<path d="M31 19.5L22.9 7.70001L22.6 8.50001L30.7 20.3L31 19.5Z"></path>
<path d="M30.5 21L22.4 9.20001L22.2 10L30.3 21.8L30.5 21Z"></path>
<path d="M30 22.5L21.9 10.7L21.6 11.5L29.7 23.3L30 22.5Z"></path>
<path d="M58.7 0C57.8 0 57.2 0.3 56.8 0.6H81.8L82 0H58.7Z"></path>
<path d="M81.6 1.30001L56.4 1.20001C56.3 1.40001 56.3 1.60001 56.3 1.80001L81.4 2.00001L81.6 1.30001Z"></path>
<path d="M81.1 2.6L56.3 2.5C56.4 2.7 56.4 3 56.6 3.1L80.9 3.2L81.1 2.6Z"></path>
<path d="M80.6 3.80001L57.2 3.70001C57.3 3.80001 57.5 3.90001 57.7 4.00001L58.7 4.40001L80.6 4.50001V3.80001C80.7 3.80001 80.7 3.80001 80.6 3.80001Z"></path>
<path d="M80.2 5.1L60.1 5L61.7 5.7L80.2 5.8L80.4 5.2C80.3 5.1 80.2 5.1 80.2 5.1Z"></path>
<path d="M79.7 6.30001L63.1 6.20001L64.7 6.90001L79.7 7.00001L79.9 6.40001C79.8 6.30001 79.8 6.30001 79.7 6.30001Z"></path>
<path d="M62 16.6H45.8L45.6 17.2H45.7H63.6L62 16.6Z"></path>
<path d="M65 17.9L45.4 17.8L45.2 18.4H45.3L66.6 18.5L65 17.9Z"></path>
<path d="M67.9 19.1H45L44.8 19.7H44.9L68.8 19.8C68.6 19.6 68.3 19.3 67.9 19.1Z"></path>
<path d="M69.2 20.4L44.6 20.3L44.4 20.9C44.4 20.9 44.4 20.9 44.5 20.9L69.5 21C69.4 20.8 69.3 20.6 69.2 20.4Z"></path>
<path d="M69.5 22C69.5 21.9 69.5 21.7 69.5 21.6L44.1 21.5L43.9 22.1L69.4 22.2C69.4 22.2 69.5 22.1 69.5 22Z"></path>
<path d="M68.4 23.3C68.7 23.2 68.9 23.1 69.1 22.9H43.7L43.5 23.5H67C67.8 23.5 68.1 23.4 68.4 23.3Z"></path>
<path d="M4.4 27.9H6C6.2 27.9 6.3 27.9 6.4 28C6.5 28 6.6 28.1 6.7 28.1C6.8 28.1 6.9 28.2 7 28.3C7.1 28.4 7.1 28.4 7.2 28.5L7.3 28.6L8.3 30.6L9.2 27.9H11.5L9.6 33.5H8C7.7 33.5 7.5 33.4 7.3 33.3C7.1 33.2 7 32.9 6.8 32.7L5.7 30.7L4.7 33.6H2.5L4.4 27.9Z"></path>
<path d="M14.3 31.5L14.8 30L16.3 29.7L16.4 29.4H14.5L13.6 32H17.8L17.3 33.5H12.6C12.5 33.5 12.3 33.5 12.1 33.4C11.9 33.3 11.8 33.3 11.6 33.2C11.5 33.1 11.3 33 11.3 32.8C11.2 32.7 11.2 32.5 11.3 32.4L12.5 29C12.6 28.8 12.7 28.7 12.8 28.6C13 28.5 13.1 28.3 13.3 28.2C13.5 28.1 13.7 28 13.9 28C14.1 27.9 14.2 27.9 14.4 27.9H17.6C17.7 27.9 17.9 27.9 18 28C18.2 28.1 18.3 28.1 18.5 28.2C18.6 28.3 18.7 28.4 18.8 28.6C18.9 28.7 18.9 28.9 18.8 29L18.5 30C18.4 30.1 18.4 30.3 18.2 30.4C18.1 30.5 17.9 30.6 17.8 30.7C17.7 30.8 17.5 30.9 17.3 30.9C17.2 31 17 31 16.9 31L14.3 31.5Z"></path>
<path d="M25.9 28C26.1 28.1 26.2 28.1 26.3 28.2C26.4 28.3 26.5 28.4 26.6 28.6C26.7 28.7 26.7 28.9 26.6 29L25.4 32.4C25.3 32.6 25.2 32.7 25.1 32.8C24.9 32.9 24.7 33.1 24.5 33.2C24.3 33.3 24.1 33.4 23.9 33.4C23.7 33.5 23.5 33.5 23.4 33.5H20.2C20.1 33.5 19.9 33.5 19.7 33.4C19.5 33.3 19.4 33.3 19.2 33.2C19.1 33.1 18.9 33 18.9 32.8C18.8 32.7 18.8 32.5 18.9 32.4L20 29C20.1 28.8 20.2 28.7 20.3 28.6C20.5 28.5 20.6 28.3 20.8 28.2C21 28.1 21.2 28 21.4 28C21.6 27.9 21.7 27.9 21.9 27.9H25.4C25.6 27.9 25.7 27.9 25.9 28ZM21.3 31.9H23.4L24.3 29.3H22.2L21.3 31.9Z"></path>
<path d="M26.8 31.9H31L31.2 31.4H28.6C28.4 31.4 28.2 31.4 28.1 31.3C27.9 31.2 27.8 31.2 27.7 31.1C27.6 31 27.5 30.9 27.4 30.8C27.3 30.7 27.3 30.6 27.4 30.4L27.9 28.9C28 28.7 28.1 28.6 28.2 28.5C28.4 28.4 28.5 28.2 28.7 28.1C28.9 28 29.1 27.9 29.3 27.9C29.5 27.8 29.7 27.8 29.8 27.8H34.6L34.1 29.3H30L29.8 29.8H32.4C32.6 29.8 32.8 29.8 32.9 29.9C33.1 30 33.2 30 33.3 30.1C33.4 30.2 33.5 30.3 33.6 30.4C33.7 30.5 33.7 30.6 33.6 30.8L33.1 32.3C33 32.5 32.9 32.6 32.8 32.7C32.6 32.8 32.5 33 32.3 33.1C32.1 33.2 31.9 33.3 31.7 33.3C31.5 33.4 31.3 33.4 31.2 33.4H26.4L26.8 31.9Z"></path>
<path d="M37 29.4H35.2L35.7 27.9H41.7L41.2 29.4H39.4L38 33.5H35.7L37 29.4Z"></path>
<path d="M42.4 27.9H47.2C47.3 27.9 47.5 27.9 47.7 28C47.9 28.1 48 28.1 48.2 28.2C48.3 28.3 48.4 28.4 48.5 28.6C48.6 28.7 48.6 28.9 48.5 29L48 30.5C47.9 30.6 47.9 30.8 47.7 30.9C47.6 31 47.4 31.1 47.3 31.2C47.2 31.3 47 31.3 46.9 31.4C46.8 31.5 46.7 31.5 46.7 31.5L47.5 33.6H45L44 31.3L44.4 30.2H45.8L46 29.5H44.1L42.7 33.6H40.4L42.4 27.9Z"></path>
<path d="M51.5 31.5L52 30L53.5 29.7L53.6 29.4H51.7L50.8 32H55L54.5 33.5H49.8C49.7 33.5 49.5 33.5 49.3 33.4C49.1 33.3 49 33.3 48.8 33.2C48.7 33.1 48.5 33 48.5 32.8C48.4 32.7 48.4 32.5 48.5 32.4L49.7 29C49.8 28.8 49.9 28.7 50 28.6C50.2 28.5 50.3 28.3 50.5 28.2C50.7 28.1 50.9 28 51.1 28C51.3 27.9 51.4 27.9 51.6 27.9H54.8C54.9 27.9 55.1 27.9 55.2 28C55.4 28.1 55.5 28.1 55.7 28.2C55.8 28.3 55.9 28.4 56 28.6C56.1 28.7 56.1 28.9 56 29L55.7 30C55.6 30.1 55.6 30.3 55.4 30.4C55.3 30.5 55.1 30.6 55 30.7C54.8 30.8 54.7 30.9 54.5 30.9C54.4 31 54.2 31 54.1 31L51.5 31.5Z"></path>
<path d="M61.2 29.6L61.3 29.4H57.1L57.6 27.9H62.4C62.6 27.9 62.7 27.9 62.9 28C63.1 28.1 63.2 28.1 63.3 28.3C63.4 28.4 63.5 28.5 63.6 28.7C63.7 28.8 63.7 29 63.6 29.2L62.1 33.5H59.8L60.5 31.3H60.3L58.5 31.6V32H59.9L59.4 33.5H57.5C57.4 33.5 57.2 33.5 57 33.4C56.8 33.3 56.7 33.3 56.5 33.2C56.3 33.1 56.2 33 56.1 32.9C56 32.8 56 32.6 56 32.5L56.4 31.3C56.4 31.2 56.5 31.1 56.7 30.9C56.8 30.8 57 30.7 57.1 30.6C57.2 30.5 57.4 30.5 57.6 30.4C57.8 30.3 57.9 30.3 58 30.3L61.2 29.6Z"></path>
<path d="M69.8 31.2L67.5 33.5H67.2L66.4 31.2L65.6 33.5H63.3L65.2 27.9H66.6C66.7 27.9 66.8 27.9 66.9 28C67 28.1 67.1 28.1 67.2 28.2C67.3 28.3 67.4 28.4 67.5 28.5C67.6 28.6 67.6 28.7 67.7 28.8V28.9L68.2 30.6L70 28.8C70.1 28.7 70.2 28.6 70.4 28.5C70.5 28.4 70.7 28.3 70.9 28.2C71 28.1 71.2 28 71.3 28C71.4 27.9 71.6 27.9 71.6 27.9H73L71.1 33.5H69L69.8 31.2Z"></path>
                        </g>
                        <defs>
                            <clipPath id="a">
                                <path fill="#fff" d="M0 0h85v43H0z"></path>
                            </clipPath>
                        </defs>
                    </svg>