<svg width="112" height="68" viewBox="0 0 112 68" fill="none" xmlns="http://www.w3.org/2000/svg">
<path d="M57.5141 4.55201L61.958 0H0L4.44388 4.55201H10.7251H57.5141Z" fill="white"/>
<path d="M46.8872 41.325H40.3415V10.8741H17.1964L21.6457 15.322H35.8922V45.7729H51.3365V24.9021L46.8872 20.4542V41.325Z" fill="white"/>
<path d="M10.8248 4.55203H4.55212L15.476 15.4263H21.7486L17.3108 11.0086L10.8248 4.55203Z" fill="#3D6E97"/>
<path d="M51.8423 10.0335L54.9353 13.1503L68.0273 0H61.799L57.3927 4.44036L51.8423 10.0335Z" fill="#E2484D"/>
<path d="M94.5807 4.55203H88.3444L75.1082 17.6681L78.2475 20.737L81.3445 17.6681L94.5807 4.55203Z" fill="#3F6D9B"/>
<path d="M46.7845 14.1617V20.4413L51.2272 24.8839L72.1162 45.7729H78.3958L73.9531 41.3303L46.7845 14.1617Z" fill="#A8D0DB"/>
<path d="M109.501 45.773L81.5063 17.7023L78.3957 20.8212L103.237 45.773H109.501Z" fill="#A8D0DB"/>
<path d="M99.1327 0H77.4284L59.6819 17.7461L83.2162 41.3365H73.9813L78.4072 45.773H93.8982L65.9379 17.7461L79.2584 4.43654H88.4508H94.7067L99.1327 0Z" fill="white"/>
<path d="M42.6982 62.9966H38.012V67.8373H35.5714V55.9918H43.2839V57.9687H38.012V61.0277H42.6982V62.9966Z" fill="white"/>
<path d="M49.2109 67.8373H46.7702V55.9918H49.2109V67.8373Z" fill="white"/>
<path d="M62.0695 57.9687H58.441V67.8373H56.0003V57.9687H52.4206V55.9918H62.0695V57.9687Z" fill="white"/>
<path d="M75.0175 67.8373H72.5768L67.8256 60.0433V67.8373H65.3849V55.9918H67.8256L72.5849 63.802V55.9918H75.0175V67.8373Z" fill="white"/>
<path d="M86.1919 62.7037H81.5058V65.8766H87.0055V67.8373H79.0651V55.9918H86.9892V57.9687H81.5058V60.7918H86.1919V62.7037Z" fill="white"/>
<path d="M96.4959 64.7295C96.4959 64.2684 96.3332 63.9159 96.0078 63.6718C95.6823 63.4223 95.0966 63.162 94.2505 62.8908C93.4044 62.6142 92.7345 62.343 92.241 62.0772C90.8959 61.3505 90.2233 60.3715 90.2233 59.1403C90.2233 58.5003 90.4023 57.9308 90.7603 57.4318C91.1237 56.9274 91.6416 56.5342 92.3142 56.2521C92.9921 55.9701 93.7515 55.8291 94.5922 55.8291C95.4383 55.8291 96.1922 55.9836 96.8539 56.2928C97.5156 56.5965 98.0281 57.0277 98.3915 57.5864C98.7603 58.145 98.9447 58.7796 98.9447 59.4901H96.504C96.504 58.9477 96.3332 58.5274 95.9915 58.2291C95.6498 57.9254 95.1698 57.7735 94.5515 57.7735C93.9549 57.7735 93.4911 57.9009 93.1603 58.1559C92.8294 58.4054 92.664 58.7362 92.664 59.1484C92.664 59.5335 92.8566 59.8562 93.2416 60.1166C93.6322 60.3769 94.2044 60.621 94.9583 60.8488C96.3467 61.2664 97.3583 61.7844 97.9929 62.4027C98.6274 63.021 98.9447 63.7912 98.9447 64.7132C98.9447 65.7383 98.5569 66.5437 97.7813 67.1295C97.0057 67.7098 95.9617 68 94.6491 68C93.7379 68 92.9081 67.8346 92.1596 67.5037C91.4111 67.1674 90.8389 66.7091 90.443 66.1288C90.0525 65.5484 89.8572 64.8759 89.8572 64.1112H92.306C92.306 65.4183 93.0871 66.0718 94.6491 66.0718C95.2295 66.0718 95.6823 65.9552 96.0078 65.722C96.3332 65.4834 96.4959 65.1525 96.4959 64.7295Z" fill="white"/>
<path d="M108.663 64.7295C108.663 64.2684 108.5 63.9159 108.175 63.6718C107.849 63.4223 107.264 63.162 106.417 62.8908C105.571 62.6142 104.902 62.343 104.408 62.0772C103.063 61.3505 102.39 60.3715 102.39 59.1403C102.39 58.5003 102.569 57.9308 102.927 57.4318C103.291 56.9274 103.809 56.5342 104.481 56.2521C105.159 55.9701 105.918 55.8291 106.759 55.8291C107.605 55.8291 108.359 55.9836 109.021 56.2928C109.683 56.5965 110.195 57.0277 110.559 57.5864C110.927 58.145 111.112 58.7796 111.112 59.4901H108.671C108.671 58.9477 108.5 58.5274 108.159 58.2291C107.817 57.9254 107.337 57.7735 106.718 57.7735C106.122 57.7735 105.658 57.9009 105.327 58.1559C104.996 58.4054 104.831 58.7362 104.831 59.1484C104.831 59.5335 105.024 59.8562 105.409 60.1166C105.799 60.3769 106.371 60.621 107.125 60.8488C108.514 61.2664 109.525 61.7844 110.16 62.4027C110.794 63.021 111.112 63.7912 111.112 64.7132C111.112 65.7383 110.724 66.5437 109.948 67.1295C109.173 67.7098 108.129 68 106.816 68C105.905 68 105.075 67.8346 104.327 67.5037C103.578 67.1674 103.006 66.7091 102.61 66.1288C102.219 65.5484 102.024 64.8759 102.024 64.1112H104.473C104.473 65.4183 105.254 66.0718 106.816 66.0718C107.396 66.0718 107.849 65.9552 108.175 65.722C108.5 65.4834 108.663 65.1525 108.663 64.7295Z" fill="white"/>
</svg>
