<svg width="24" height="24" viewBox="0 0 24 24" fill="none" xmlns="http://www.w3.org/2000/svg">
<g clip-path="url(#clip0_12_149)">
<path d="M19.5 24H4.5C2.01453 24 0 21.9855 0 19.5V4.5C0 2.01453 2.01453 0 4.5 0H19.5C21.9855 0 24 2.01453 24 4.5V19.5C24 21.9855 21.9855 24 19.5 24Z" fill="#FFE6E2"/>
<path d="M12 6C8.69183 6 6 8.69183 6 12C6 15.3082 8.69183 18 12 18C15.3082 18 18 15.3082 18 12C18 8.69183 15.3082 6 12 6ZM14.2095 13.5029C14.4045 13.6979 14.4045 14.0145 14.2095 14.2103C14.1119 14.3077 13.9838 14.3566 13.8563 14.3566C13.7287 14.3566 13.6005 14.3077 13.5029 14.2103L12 12.7073L10.4971 14.2103C10.3995 14.3077 10.2713 14.3566 10.1437 14.3566C10.0155 14.3566 9.88806 14.3077 9.79047 14.2103C9.59546 14.0153 9.59546 13.6987 9.79047 13.5029L11.2927 12L9.78973 10.4971C9.59473 10.3021 9.59473 9.98547 9.78973 9.78973C9.98474 9.59399 10.3013 9.59473 10.4971 9.78973L12 11.2927L13.5029 9.78973C13.6979 9.59473 14.0145 9.59473 14.2103 9.78973C14.406 9.98474 14.4053 10.3013 14.2103 10.4971L12.7073 12L14.2095 13.5029Z" fill="#FC573B"/>
</g>
<defs>
<clipPath id="clip0_12_149">
<rect width="24" height="24" fill="white"/>
</clipPath>
</defs>
</svg>
