<svg width="12" height="12" viewBox="0 0 12 12" fill="none" xmlns="http://www.w3.org/2000/svg">
<path d="M6 0C2.69183 0 0 2.69183 0 6C0 9.30817 2.69183 12 6 12C9.30817 12 12 9.30817 12 6C12 2.69183 9.30817 0 6 0ZM8.20953 7.50293C8.40454 7.69794 8.40454 8.01453 8.20953 8.21027C8.11194 8.30768 7.98376 8.35657 7.85632 8.35657C7.7287 8.35657 7.60052 8.30768 7.50293 8.21027L6 6.70734L4.49707 8.21027C4.39948 8.30768 4.2713 8.35657 4.14368 8.35657C4.0155 8.35657 3.88806 8.30768 3.79047 8.21027C3.59546 8.01526 3.59546 7.69867 3.79047 7.50293L5.29266 6L3.78973 4.49707C3.59473 4.30206 3.59473 3.98547 3.78973 3.78973C3.98474 3.59399 4.30133 3.59473 4.49707 3.78973L6 5.29266L7.50293 3.78973C7.69794 3.59473 8.01453 3.59473 8.21027 3.78973C8.40601 3.98474 8.40527 4.30133 8.21027 4.49707L6.70734 6L8.20953 7.50293Z" fill="#FC573B"/>
</svg>
