<svg width="25" height="24" fill="none" xmlns="http://www.w3.org/2000/svg"><g clip-path="url(#clip0_12_152)"><path d="M20.313 24H4.688C2.098 24 0 21.985 0 19.5v-15C0 2.015 2.098 0 4.688 0h15.625C22.9 0 25 2.015 25 4.5v15c0 2.485-2.099 4.5-4.688 4.5z" fill="#E0FFDD"/><path d="M12.5 6c-3.446 0-6.25 2.692-6.25 6s2.804 6 6.25 6 6.25-2.692 6.25-6-2.804-6-6.25-6zm3.168 4.729l-3.385 3.25a.53.53 0 01-.368.146.53.53 0 01-.368-.146l-1.693-1.626a.486.486 0 010-.707.536.536 0 01.737 0l1.324 1.271 3.017-2.896a.537.537 0 01.737 0 .487.487 0 01-.001.708z" fill="#00BA13"/></g><defs><clipPath id="clip0_12_152"><path fill="#fff" d="M0 0h25v24H0z"/></clipPath></defs></svg>