<svg width="95" height="61" fill="none" xmlns="http://www.w3.org/2000/svg"><path d="M48.326 3.825L52.06 0H0l3.734 3.825h44.592zm-8.929 30.898h-5.5V9.137H14.449l3.739 3.737h11.97v25.587h12.977V20.924l-3.738-3.737v17.536z" fill="#fff"/><path d="M9.095 3.825h-5.27l9.179 9.137h5.27L14.545 9.25l-5.45-5.425z" fill="#3D6E97"/><path d="M43.56 8.43l2.6 2.62L57.16 0h-5.234l-3.702 3.731-4.664 4.7z" fill="#E2484D"/><path d="M79.471 3.825h-5.24l-11.122 11.02 2.638 2.58 2.602-2.58 11.122-11.02z" fill="#3F6D9B"/><path d="M39.31 11.9v5.276l3.733 3.733L60.596 38.46h5.277l-3.733-3.733-22.83-22.828zm52.698 26.56L68.485 14.875l-2.613 2.621 20.873 20.966h5.263z" fill="#A8D0DB"/><path d="M83.296 0H65.059L50.148 14.911l19.774 19.822h-7.76l3.72 3.728h13.015L55.404 14.91 66.597 3.728h12.98L83.296 0zM35.877 52.933h-3.938V57h-2.05v-9.953h6.48v1.661h-4.43v2.57h3.938v1.655zM41.349 57H39.3v-9.953h2.05V57zm10.805-8.292h-3.05V57h-2.05v-8.292h-3.008v-1.661h8.108v1.661zM63.034 57h-2.052l-3.992-6.549V57h-2.05v-9.953h2.05l4 6.562v-6.562h2.043V57zm9.388-4.313h-3.937v2.666h4.621V57h-6.672v-9.953h6.658v1.661h-4.607v2.372h3.937v1.607zm8.658 1.702c0-.388-.136-.684-.41-.889-.273-.21-.766-.428-1.476-.656-.711-.233-1.274-.46-1.689-.684-1.13-.61-1.695-1.433-1.695-2.468 0-.537.15-1.016.45-1.435.306-.424.741-.754 1.307-.991.57-.237 1.207-.356 1.914-.356.71 0 1.344.13 1.9.39.556.255.987.617 1.292 1.087.31.47.465 1.002.465 1.6h-2.05c0-.456-.144-.81-.432-1.06-.287-.255-.69-.383-1.21-.383-.5 0-.89.107-1.168.321a.994.994 0 00-.418.834c0 .324.162.595.486.814.328.218.809.424 1.442.615 1.167.35 2.017.786 2.55 1.306.533.52.8 1.166.8 1.941 0 .861-.326 1.538-.978 2.03-.651.488-1.529.732-2.632.732-.765 0-1.462-.14-2.091-.417-.63-.283-1.11-.668-1.443-1.155-.328-.488-.492-1.053-.492-1.696h2.058c0 1.098.656 1.648 1.968 1.648.488 0 .869-.098 1.142-.294.274-.2.41-.479.41-.834zm10.224 0c0-.388-.137-.684-.41-.889-.274-.21-.766-.428-1.477-.656-.711-.233-1.274-.46-1.689-.684-1.13-.61-1.695-1.433-1.695-2.468a2.4 2.4 0 01.451-1.435c.306-.424.74-.754 1.306-.991.57-.237 1.208-.356 1.914-.356.71 0 1.344.13 1.9.39.556.255.987.617 1.292 1.087.31.47.465 1.002.465 1.6h-2.05c0-.456-.144-.81-.431-1.06-.287-.255-.69-.383-1.21-.383-.502 0-.891.107-1.17.321a.994.994 0 00-.416.834c0 .324.162.595.485.814.328.218.81.424 1.443.615 1.166.35 2.016.786 2.55 1.306.533.52.8 1.166.8 1.941 0 .861-.327 1.538-.978 2.03-.652.488-1.53.732-2.632.732-.766 0-1.463-.14-2.092-.417-.629-.283-1.11-.668-1.442-1.155-.329-.488-.493-1.053-.493-1.696h2.058c0 1.098.656 1.648 1.969 1.648.487 0 .868-.098 1.141-.294.274-.2.41-.479.41-.834z" fill="#fff"/></svg>