<svg width="28" height="26" fill="none" xmlns="http://www.w3.org/2000/svg"><g clip-path="url(#clip0_10_3)" filter="url(#filter0_d_10_3)" fill="#E2484D"><path d="M19.208 21.75H6.292A2.294 2.294 0 014 19.458V6.542a2.294 2.294 0 012.292-2.291h10.416a.625.625 0 010 1.25H6.292c-.575 0-1.042.467-1.042 1.041v12.916c0 .575.467 1.042 1.042 1.042h12.916c.574 0 1.042-.468 1.042-1.042v-7.083a.625.625 0 011.25 0v7.083a2.293 2.293 0 01-2.292 2.292z"/><path d="M14.208 14.667a.62.62 0 01-.442-.183l-3.75-3.75a.625.625 0 11.885-.884l3.308 3.308 8.724-8.724a.625.625 0 11.884.884l-9.167 9.167a.626.626 0 01-.442.182z"/></g><defs><clipPath id="clip0_10_3"><path fill="#fff" transform="translate(4 3)" d="M0 0h20v20H0z"/></clipPath><filter id="filter0_d_10_3" x="0" y="-1" width="28" height="28" filterUnits="userSpaceOnUse" color-interpolation-filters="sRGB"><feFlood flood-opacity="0" result="BackgroundImageFix"/><feColorMatrix in="SourceAlpha" values="0 0 0 0 0 0 0 0 0 0 0 0 0 0 0 0 0 0 127 0" result="hardAlpha"/><feOffset/><feGaussianBlur stdDeviation="2"/><feColorMatrix values="0 0 0 0 0.886275 0 0 0 0 0.282353 0 0 0 0 0.301961 0 0 0 0.3 0"/><feBlend in2="BackgroundImageFix" result="effect1_dropShadow_10_3"/><feBlend in="SourceGraphic" in2="effect1_dropShadow_10_3" result="shape"/></filter></defs></svg>