<svg xmlns="http://www.w3.org/2000/svg" viewBox="0 0 85 50"><g clip-path="url(#a)" fill="#F5E400"><path d="M25.2.1h-6.9c-2.7 0-5.1 1.7-5.9 4.3L5.9 23.5h11.4L25.2.1zm24.1 0H37.9l-8 23.5h6.9c2.7 0 5.1-1.7 5.9-4.3L49.3.1zm28 15.5c0-1.9-1.1-3.6-2.9-4.4l-16.8-7c-2.3-1-1.8-3.7-.3-4.2-4.9 0-8.2 2.9-8.9 6.3-.1.3-.1.6-.1 1v.4c0 .1 0 .2.1.3.2 1.6 1.2 3.1 2.9 3.8l16.1 6.7c.1 0 .1.1.3.1 3.2 1.4 2.5 4.9.8 4.9 5.6 0 9.1-3.7 9.1-7.7-.3 0-.3-.1-.3-.2zm-43.8-3.5L25.4.4l-.3.8L33.2 13l.3-.9zm-.5 1.5L24.9 1.8l-.3.8 8.1 11.8.3-.8zm-.5 1.5L24.4 3.3l-.3.8 8.1 11.8.3-.8zm-.5 1.5L23.9 4.7l-.3.8 8.1 11.8.3-.7zm-.5 1.4L23.4 6.2l-.2.8 8.1 11.8.2-.8zm-.5 1.5L22.9 7.7l-.3.8 8.1 11.8.3-.8zm-.5 1.5L22.4 9.2l-.2.8 8.1 11.8.2-.8zm-.5 1.5l-8.1-11.8-.3.8 8.1 11.8.3-.8z"/><path d="M58.7 0c-.9 0-1.5.3-1.9.6h25L82 0H58.7zm22.9 1.3l-25.2-.1c-.1.2-.1.4-.1.6l25.1.2.2-.7zm-.5 1.3l-24.8-.1c.1.2.1.5.3.6l24.3.1.2-.6zm-.5 1.2l-23.4-.1c.1.1.3.2.5.3l1 .4 21.9.1v-.7c.1 0 .1 0 0 0zm-.4 1.3L60.1 5l1.6.7 18.5.1.2-.6c-.1-.1-.2-.1-.2-.1zm-.5 1.2l-16.6-.1 1.6.7 15 .1.2-.6c-.1-.1-.1-.1-.2-.1zM62 16.6H45.8l-.2.6h18l-1.6-.6zm3 1.3l-19.6-.1-.2.6h.1l21.3.1-1.6-.6zm2.9 1.2H45l-.2.6h.1l23.9.1c-.2-.2-.5-.5-.9-.7zm1.3 1.3l-24.6-.1-.2.6h.1l25 .1-.3-.6zm.3 1.6v-.4l-25.4-.1-.2.6 25.5.1s.1-.1.1-.2zm-1.1 1.3c.3-.1.5-.2.7-.4H43.7l-.2.6H67c.8 0 1.1-.1 1.4-.2zm-64 4.6H6c.2 0 .3 0 .4.1.1 0 .2.1.3.1.1 0 .2.1.3.2l.2.2.1.1 1 2 .9-2.7h2.3l-1.9 5.6H8c-.3 0-.5-.1-.7-.2-.2-.1-.3-.4-.5-.6l-1.1-2-1 2.9H2.5l1.9-5.7zm9.9 3.6l.5-1.5 1.5-.3.1-.3h-1.9l-.9 2.6h4.2l-.5 1.5h-4.7c-.1 0-.3 0-.5-.1s-.3-.1-.5-.2c-.1-.1-.3-.2-.3-.4-.1-.1-.1-.3 0-.4l1.2-3.4c.1-.2.2-.3.3-.4.2-.1.3-.3.5-.4.2-.1.4-.2.6-.2.2-.1.3-.1.5-.1h3.2c.1 0 .3 0 .4.1.2.1.3.1.5.2.1.1.2.2.3.4.1.1.1.3 0 .4l-.3 1c-.1.1-.1.3-.3.4-.1.1-.3.2-.4.3-.1.1-.3.2-.5.2-.1.1-.3.1-.4.1l-2.6.5zM25.9 28c.2.1.3.1.4.2.1.1.2.2.3.4.1.1.1.3 0 .4l-1.2 3.4c-.1.2-.2.3-.3.4-.2.1-.4.3-.6.4-.2.1-.4.2-.6.2-.2.1-.4.1-.5.1h-3.2c-.1 0-.3 0-.5-.1s-.3-.1-.5-.2c-.1-.1-.3-.2-.3-.4-.1-.1-.1-.3 0-.4L20 29c.1-.2.2-.3.3-.4.2-.1.3-.3.5-.4.2-.1.4-.2.6-.2.2-.1.3-.1.5-.1h3.5c.2 0 .3 0 .5.1zm-4.6 3.9h2.1l.9-2.6h-2.1l-.9 2.6zm5.5 0H31l.2-.5h-2.6c-.2 0-.4 0-.5-.1-.2-.1-.3-.1-.4-.2l-.3-.3c-.1-.1-.1-.2 0-.4l.5-1.5c.1-.2.2-.3.3-.4.2-.1.3-.3.5-.4.2-.1.4-.2.6-.2.2-.1.4-.1.5-.1h4.8l-.5 1.5H30l-.2.5h2.6c.2 0 .4 0 .5.1.2.1.3.1.4.2l.3.3c.1.1.1.2 0 .4l-.5 1.5c-.1.2-.2.3-.3.4-.2.1-.3.3-.5.4-.2.1-.4.2-.6.2-.2.1-.4.1-.5.1h-4.8l.4-1.5zM37 29.4h-1.8l.5-1.5h6l-.5 1.5h-1.8L38 33.5h-2.3l1.3-4.1zm5.4-1.5h4.8c.1 0 .3 0 .5.1s.3.1.5.2c.1.1.2.2.3.4.1.1.1.3 0 .4l-.5 1.5c-.1.1-.1.3-.3.4-.1.1-.3.2-.4.3-.1.1-.3.1-.4.2-.1.1-.2.1-.2.1l.8 2.1H45l-1-2.3.4-1.1h1.4l.2-.7h-1.9l-1.4 4.1h-2.3l2-5.7zm9.1 3.6L52 30l1.5-.3.1-.3h-1.9l-.9 2.6H55l-.5 1.5h-4.7c-.1 0-.3 0-.5-.1s-.3-.1-.5-.2c-.1-.1-.3-.2-.3-.4-.1-.1-.1-.3 0-.4l1.2-3.4c.1-.2.2-.3.3-.4.2-.1.3-.3.5-.4.2-.1.4-.2.6-.2.2-.1.3-.1.5-.1h3.2c.1 0 .3 0 .4.1.2.1.3.1.5.2.1.1.2.2.3.4.1.1.1.3 0 .4l-.3 1c-.1.1-.1.3-.3.4-.1.1-.3.2-.4.3-.2.1-.3.2-.5.2-.1.1-.3.1-.4.1l-2.6.5zm9.7-1.9l.1-.2h-4.2l.5-1.5h4.8c.2 0 .3 0 .5.1s.3.1.4.3c.1.1.2.2.3.4.1.1.1.3 0 .5l-1.5 4.3h-2.3l.7-2.2h-.2l-1.8.3v.4h1.4l-.5 1.5h-1.9c-.1 0-.3 0-.5-.1s-.3-.1-.5-.2-.3-.2-.4-.3c-.1-.1-.1-.3-.1-.4l.4-1.2c0-.1.1-.2.3-.4.1-.1.3-.2.4-.3.1-.1.3-.1.5-.2s.3-.1.4-.1l3.2-.7zm8.6 1.6l-2.3 2.3h-.3l-.8-2.3-.8 2.3h-2.3l1.9-5.6h1.4c.1 0 .2 0 .3.1.1.1.2.1.3.2l.3.3c.1.1.1.2.2.3v.1l.5 1.7 1.8-1.8c.1-.1.2-.2.4-.3.1-.1.3-.2.5-.3.1-.1.3-.2.4-.2.1-.1.3-.1.3-.1H73l-1.9 5.6H69l.8-2.3z"/></g><defs><clipPath id="a"><path fill="#fff" d="M0 0h85v43H0z"/></clipPath></defs></svg>