<svg width="112" height="68" fill="none" xmlns="http://www.w3.org/2000/svg"><path d="M57.514 4.552L61.958 0H0l4.444 4.552h53.071zM46.887 41.325h-6.545v-30.45H17.196l4.45 4.447h14.246v30.45h15.444v-20.87l-4.449-4.448v20.871z" fill="#fff"/><path d="M10.825 4.552H4.552l10.924 10.874h6.273L17.31 11.01l-6.486-6.457z" fill="#3D6E97"/><path d="M51.842 10.034l3.093 3.116L68.027 0H61.8l-4.406 4.44-5.55 5.593z" fill="#E2484D"/><path d="M94.58 4.552h-6.236L75.108 17.668l3.14 3.069 3.096-3.069L94.581 4.552z" fill="#3F6D9B"/><path d="M46.785 14.162v6.28l4.442 4.442 20.89 20.889h6.279l-4.443-4.443-27.169-27.168zm62.716 31.611l-27.995-28.07-3.11 3.118 24.841 24.952h6.264z" fill="#A8D0DB"/><path d="M99.133 0H77.428L59.682 17.746l23.534 23.59h-9.235l4.426 4.437h15.491l-27.96-28.027 13.32-13.31h15.449L99.133 0zM42.698 62.997h-4.686v4.84h-2.44V55.992h7.712v1.977h-5.272v3.059h4.686v1.969zm6.512 4.84h-2.44V55.992h2.44v11.845zm12.86-9.868h-3.63v9.868H56V57.97h-3.58v-1.977h9.648v1.977zm12.947 9.868h-2.44l-4.751-7.794v7.794h-2.441V55.992h2.44l4.76 7.81v-7.81h2.433v11.845zm11.175-5.133h-4.686v3.173h5.5v1.96h-7.94V55.992h7.923v1.977h-5.483v2.823h4.686v1.912zm10.304 2.026c0-.462-.163-.814-.488-1.058-.326-.25-.911-.51-1.757-.781-.847-.277-1.517-.548-2.01-.814-1.345-.727-2.018-1.706-2.018-2.937 0-.64.18-1.21.537-1.708.364-.505.882-.898 1.554-1.18.678-.282 1.438-.423 2.278-.423.846 0 1.6.155 2.262.464.662.303 1.174.735 1.537 1.293.37.559.554 1.194.554 1.904h-2.441c0-.542-.17-.963-.513-1.26-.341-.305-.821-.456-1.44-.456-.596 0-1.06.127-1.39.382a1.18 1.18 0 00-.497.992c0 .385.193.708.578.969.39.26.962.504 1.716.732 1.389.417 2.4.935 3.035 1.554.634.618.952 1.388.952 2.31 0 1.025-.388 1.83-1.164 2.416-.775.58-1.82.871-3.132.871-.911 0-1.74-.165-2.49-.496-.748-.337-1.32-.795-1.716-1.375-.39-.58-.586-1.253-.586-2.018h2.449c0 1.307.781 1.96 2.343 1.96.58 0 1.033-.116 1.359-.349.325-.239.488-.57.488-.992zm12.167 0c0-.462-.163-.814-.488-1.058-.326-.25-.911-.51-1.758-.781-.846-.277-1.515-.548-2.009-.814-1.345-.727-2.018-1.706-2.018-2.937 0-.64.179-1.21.537-1.708.364-.505.882-.898 1.554-1.18.678-.282 1.437-.423 2.278-.423.846 0 1.6.155 2.262.464.662.303 1.174.735 1.538 1.293.368.559.553 1.194.553 1.904h-2.441c0-.542-.171-.963-.512-1.26-.342-.305-.822-.456-1.441-.456-.596 0-1.06.127-1.391.382-.331.25-.496.58-.496.992 0 .385.193.708.578.969.39.26.962.504 1.716.732 1.389.417 2.4.935 3.035 1.554.634.618.952 1.388.952 2.31 0 1.025-.388 1.83-1.164 2.416-.775.58-1.819.871-3.132.871-.911 0-1.741-.165-2.489-.496-.749-.337-1.321-.795-1.717-1.375-.391-.58-.586-1.253-.586-2.018h2.449c0 1.307.781 1.96 2.343 1.96.58 0 1.033-.116 1.359-.349.325-.239.488-.57.488-.992z" fill="#fff"/></svg>