<svg width="24" height="24" fill="none" xmlns="http://www.w3.org/2000/svg"><g clip-path="url(#clip0_12_149)"><path d="M19.5 24h-15A4.5 4.5 0 010 19.5v-15A4.5 4.5 0 014.5 0h15A4.5 4.5 0 0124 4.5v15a4.5 4.5 0 01-4.5 4.5z" fill="#FFE6E2"/><path d="M12 6c-3.308 0-6 2.692-6 6s2.692 6 6 6 6-2.692 6-6-2.692-6-6-6zm2.21 7.503a.5.5 0 01-.707.707L12 12.707l-1.503 1.503a.5.5 0 11-.707-.707L11.293 12 9.79 10.497a.5.5 0 01.707-.707L12 11.293l1.503-1.503a.5.5 0 01.707.707L12.707 12l1.502 1.503z" fill="#FC573B"/></g><defs><clipPath id="clip0_12_149"><path fill="#fff" d="M0 0h24v24H0z"/></clipPath></defs></svg>